<svg version="1.1" id="logo" xmlns="http://www.w3.org/2000/svg" xmlns:xlink="http://www.w3.org/1999/xlink" x="0px" y="0px" viewBox="0 0 153 270" style="enable-background:new 0 0 153 270;" xml:space="preserve">
  Emory Libraries
  <title id="logo-title">Emory Libraries</title>
  <g id="group-wrapper">
    <g id="unit">
      <path d="M11.24,241.72h7.71v2.14h-5.02v3.91h4.75v2.14h-4.75v4.33h5.23v2.14h-7.92V241.72z" />
      <path d="M21.05,247.33c0-0.39-0.01-0.74-0.02-1.03s-0.04-0.54-0.06-0.74h2.6c0.01,0.28,0.03,0.56,0.05,0.85
					c0.02,0.29,0.03,0.57,0.03,0.85h0.04c0.1-0.21,0.23-0.43,0.39-0.65c0.16-0.22,0.35-0.42,0.57-0.6c0.22-0.17,0.47-0.32,0.77-0.44
					c0.29-0.12,0.63-0.18,1.01-0.18c0.46,0,0.85,0.06,1.15,0.19c0.31,0.13,0.57,0.28,0.78,0.45c0.21,0.18,0.37,0.36,0.49,0.57
					s0.22,0.38,0.3,0.51c0.13-0.18,0.27-0.38,0.44-0.58c0.17-0.2,0.37-0.39,0.6-0.56c0.23-0.17,0.5-0.31,0.8-0.42
					c0.3-0.11,0.65-0.17,1.06-0.17c0.59,0,1.08,0.1,1.48,0.3c0.4,0.2,0.72,0.49,0.96,0.86s0.41,0.82,0.51,1.35
					c0.11,0.53,0.16,1.13,0.16,1.79v6.68h-2.6v-6.83c0-0.67-0.11-1.18-0.33-1.51c-0.22-0.34-0.57-0.5-1.06-0.5
					c-0.29,0-0.55,0.06-0.77,0.19c-0.22,0.13-0.4,0.29-0.55,0.5c-0.15,0.21-0.26,0.46-0.34,0.74c-0.08,0.28-0.12,0.57-0.12,0.86
					v6.55h-2.6v-6.83c0-0.67-0.11-1.18-0.33-1.51c-0.22-0.34-0.57-0.5-1.06-0.5c-0.29,0-0.55,0.06-0.77,0.19
					c-0.22,0.13-0.4,0.29-0.55,0.5c-0.15,0.21-0.26,0.46-0.34,0.74c-0.08,0.28-0.12,0.57-0.12,0.86v6.55h-2.6V247.33z" />
      <path d="M36.91,250.96c0-1.11,0.14-2.02,0.43-2.73c0.29-0.71,0.66-1.28,1.12-1.7c0.46-0.42,0.98-0.71,1.54-0.88
					s1.12-0.25,1.67-0.25c0.55,0,1.1,0.08,1.67,0.25c0.57,0.17,1.08,0.46,1.53,0.88s0.83,0.99,1.11,1.7
					c0.29,0.71,0.43,1.62,0.43,2.73c0,1.13-0.14,2.06-0.43,2.78c-0.29,0.72-0.66,1.29-1.11,1.71s-0.97,0.71-1.53,0.86
					c-0.57,0.15-1.12,0.23-1.67,0.23c-0.55,0-1.1-0.08-1.67-0.23c-0.57-0.15-1.08-0.44-1.54-0.86c-0.46-0.42-0.84-0.99-1.12-1.71
					C37.05,253.02,36.91,252.09,36.91,250.96z M39.59,250.96c0,0.45,0.03,0.9,0.08,1.34c0.06,0.45,0.16,0.85,0.33,1.21
					c0.16,0.36,0.37,0.64,0.64,0.86c0.27,0.22,0.61,0.33,1.03,0.33c0.42,0,0.76-0.11,1.03-0.33c0.27-0.22,0.48-0.5,0.63-0.86
					c0.15-0.36,0.26-0.76,0.32-1.21c0.06-0.45,0.08-0.9,0.08-1.34s-0.03-0.9-0.08-1.34c-0.06-0.45-0.16-0.85-0.32-1.2
					s-0.36-0.63-0.63-0.85c-0.27-0.22-0.61-0.33-1.03-0.33c-0.42,0-0.76,0.11-1.03,0.33c-0.27,0.22-0.48,0.5-0.64,0.85
					s-0.27,0.75-0.33,1.2C39.62,250.06,39.59,250.51,39.59,250.96z" />
      <path d="M48.31,247.35c0-0.34-0.01-0.66-0.02-0.97c-0.01-0.31-0.04-0.58-0.06-0.82h2.35c0.01,0.32,0.03,0.65,0.05,0.99
					c0.02,0.34,0.03,0.67,0.03,0.99h0.04c0.08-0.21,0.2-0.44,0.34-0.69c0.14-0.25,0.32-0.48,0.55-0.69c0.22-0.21,0.49-0.39,0.8-0.54
					c0.31-0.15,0.67-0.22,1.07-0.22c0.08,0,0.16,0.01,0.23,0.02s0.14,0.03,0.21,0.04v2.44c-0.25-0.07-0.5-0.1-0.73-0.1
					c-0.27,0-0.53,0.05-0.8,0.14c-0.27,0.09-0.51,0.24-0.72,0.44c-0.22,0.2-0.39,0.48-0.53,0.82s-0.2,0.77-0.2,1.27v5.92h-2.6
					V247.35z" />
      <path d="M59.58,253.73h0.04l2.08-8.17h2.52l-3.34,10.92l-0.61,1.95c-0.11,0.38-0.26,0.72-0.43,1.04
					c-0.17,0.31-0.38,0.59-0.63,0.82c-0.25,0.23-0.54,0.41-0.87,0.55c-0.34,0.13-0.72,0.2-1.16,0.2c-0.35,0-0.67-0.03-0.95-0.08
					c-0.28-0.06-0.52-0.12-0.71-0.19l0.15-2c0.15,0.06,0.31,0.11,0.46,0.15c0.15,0.04,0.33,0.06,0.52,0.06
					c0.39,0.01,0.69-0.1,0.89-0.36s0.39-0.66,0.56-1.22l0.19-0.92l-3.59-10.92h2.69L59.58,253.73z" />
      <path d="M70.71,241.72h2.69v12.52h4.83v2.14h-7.52V241.72z" />
      <path d="M79.74,240.96h2.69v2.56h-2.69V240.96z M79.79,245.56h2.6v10.82h-2.6V245.56z" />
      <path d="M87.39,240.63v6.49h0.04c0.1-0.21,0.22-0.42,0.38-0.62c0.15-0.2,0.35-0.39,0.58-0.56c0.23-0.17,0.5-0.3,0.8-0.4
					s0.65-0.15,1.04-0.15c1.18,0,2.09,0.49,2.75,1.46c0.66,0.97,0.99,2.35,0.99,4.13c0,0.76-0.07,1.47-0.22,2.14
					c-0.15,0.67-0.37,1.26-0.67,1.76c-0.3,0.5-0.69,0.91-1.18,1.21c-0.48,0.3-1.06,0.45-1.73,0.45c-0.42,0-0.79-0.05-1.1-0.16
					c-0.31-0.11-0.58-0.25-0.81-0.42c-0.22-0.17-0.42-0.37-0.58-0.59c-0.16-0.22-0.29-0.44-0.39-0.68h-0.06c0,0.36-0.01,0.7-0.02,1
					c-0.01,0.3-0.04,0.53-0.06,0.68H84.7c0.03-0.2,0.05-0.46,0.06-0.78c0.01-0.32,0.02-0.68,0.02-1.07v-13.9H87.39z M87.39,250.94
					c0,0.5,0.03,0.98,0.1,1.43s0.19,0.84,0.35,1.18s0.37,0.6,0.64,0.8c0.27,0.2,0.59,0.29,0.97,0.29c0.76,0,1.26-0.31,1.52-0.93
					c0.26-0.62,0.39-1.56,0.39-2.82c0-1.08-0.14-1.94-0.43-2.59c-0.29-0.65-0.79-0.98-1.52-0.98c-0.36,0-0.67,0.09-0.92,0.27
					s-0.46,0.43-0.62,0.76c-0.16,0.32-0.28,0.71-0.36,1.16S87.39,250.42,87.39,250.94z" />
      <path d="M95.85,247.35c0-0.34-0.01-0.66-0.02-0.97c-0.01-0.31-0.04-0.58-0.06-0.82h2.35c0.01,0.32,0.03,0.65,0.05,0.99
					c0.02,0.34,0.03,0.67,0.03,0.99h0.04c0.08-0.21,0.2-0.44,0.34-0.69c0.14-0.25,0.32-0.48,0.55-0.69c0.22-0.21,0.49-0.39,0.8-0.54
					c0.31-0.15,0.67-0.22,1.07-0.22c0.08,0,0.16,0.01,0.23,0.02s0.14,0.03,0.21,0.04v2.44c-0.25-0.07-0.5-0.1-0.73-0.1
					c-0.27,0-0.53,0.05-0.8,0.14c-0.27,0.09-0.51,0.24-0.72,0.44c-0.22,0.2-0.39,0.48-0.53,0.82s-0.2,0.77-0.2,1.27v5.92h-2.6
					V247.35z" />
      <path d="M103.22,246.19c0.36-0.17,0.82-0.34,1.37-0.53c0.55-0.18,1.23-0.27,2.06-0.27c0.84,0,1.53,0.1,2.07,0.29
					c0.54,0.2,0.96,0.48,1.26,0.86s0.51,0.84,0.63,1.38c0.12,0.54,0.18,1.14,0.18,1.82v4.72c0,0.39,0.02,0.76,0.05,1.09
					s0.07,0.61,0.09,0.82h-2.35c-0.07-0.21-0.11-0.44-0.13-0.69s-0.02-0.51-0.02-0.78h-0.04c-0.32,0.45-0.71,0.83-1.18,1.15
					c-0.46,0.32-1.08,0.48-1.85,0.48c-0.42,0-0.83-0.07-1.22-0.21c-0.39-0.14-0.74-0.35-1.03-0.62c-0.29-0.27-0.53-0.61-0.71-1
					c-0.18-0.39-0.27-0.84-0.27-1.34c0-0.73,0.14-1.33,0.43-1.81c0.29-0.48,0.68-0.85,1.19-1.13c0.5-0.28,1.1-0.47,1.8-0.58
					s1.45-0.16,2.28-0.16h0.53v-0.4c0-0.27-0.04-0.52-0.11-0.78c-0.07-0.25-0.19-0.47-0.35-0.66c-0.16-0.19-0.37-0.34-0.62-0.45
					s-0.57-0.17-0.95-0.17c-0.32,0-0.63,0.04-0.93,0.1c-0.3,0.07-0.58,0.16-0.84,0.26c-0.26,0.11-0.49,0.22-0.69,0.35
					c-0.2,0.13-0.37,0.24-0.49,0.34L103.22,246.19z M108.34,251.08h-0.23c-1.12,0-1.99,0.14-2.61,0.43s-0.93,0.82-0.93,1.61
					c0,0.49,0.15,0.89,0.45,1.2c0.3,0.31,0.7,0.46,1.21,0.46c0.78,0,1.33-0.27,1.65-0.82s0.47-1.3,0.47-2.27V251.08z" />
      <path d="M113.03,247.35c0-0.34-0.01-0.66-0.02-0.97c-0.01-0.31-0.04-0.58-0.06-0.82h2.35c0.01,0.32,0.03,0.65,0.05,0.99
					c0.02,0.34,0.03,0.67,0.03,0.99h0.04c0.08-0.21,0.2-0.44,0.34-0.69c0.14-0.25,0.32-0.48,0.55-0.69c0.22-0.21,0.49-0.39,0.8-0.54
					c0.31-0.15,0.67-0.22,1.07-0.22c0.08,0,0.16,0.01,0.23,0.02s0.14,0.03,0.21,0.04v2.44c-0.25-0.07-0.5-0.1-0.73-0.1
					c-0.27,0-0.53,0.05-0.8,0.14c-0.27,0.09-0.51,0.24-0.72,0.44c-0.22,0.2-0.39,0.48-0.53,0.82s-0.2,0.77-0.2,1.27v5.92h-2.6
					V247.35z" />
      <path d="M120.29,240.96h2.69v2.56h-2.69V240.96z M120.33,245.56h2.6v10.82h-2.6V245.56z" />
      <path d="M133.23,255.85c-0.28,0.11-0.69,0.26-1.24,0.43s-1.21,0.26-2,0.26c-0.87,0-1.62-0.15-2.25-0.44
					c-0.63-0.29-1.15-0.69-1.55-1.18c-0.41-0.49-0.71-1.06-0.9-1.72s-0.29-1.35-0.29-2.08c0-0.81,0.1-1.56,0.3-2.26
					c0.2-0.69,0.5-1.3,0.88-1.82c0.38-0.52,0.85-0.92,1.41-1.22c0.55-0.29,1.17-0.44,1.86-0.44c0.59,0,1.14,0.09,1.66,0.28
					c0.52,0.19,0.98,0.51,1.38,0.96c0.4,0.45,0.71,1.04,0.95,1.77c0.23,0.74,0.35,1.66,0.35,2.76v0.5h-6.26
					c0,0.92,0.21,1.65,0.62,2.17c0.41,0.52,1.12,0.79,2.13,0.79c0.8,0,1.41-0.09,1.84-0.28c0.43-0.19,0.76-0.38,1-0.56
					L133.23,255.85z M131.25,250.03c0-1.92-0.6-2.88-1.81-2.88c-0.34,0-0.63,0.08-0.87,0.25c-0.25,0.17-0.45,0.38-0.61,0.65
					c-0.16,0.27-0.28,0.57-0.35,0.92c-0.07,0.35-0.1,0.7-0.1,1.05H131.25z" />
      <path d="M135.24,253.86c0.1,0.04,0.24,0.1,0.42,0.18c0.18,0.08,0.39,0.16,0.63,0.24s0.5,0.15,0.78,0.21s0.57,0.08,0.88,0.08
					c0.48,0,0.88-0.07,1.2-0.22c0.32-0.15,0.48-0.43,0.48-0.85c0-0.21-0.07-0.42-0.22-0.63c-0.15-0.21-0.46-0.46-0.93-0.74
					l-1.07-0.63c-0.28-0.17-0.55-0.34-0.82-0.51c-0.27-0.17-0.51-0.38-0.73-0.61c-0.22-0.23-0.4-0.5-0.54-0.82
					c-0.13-0.32-0.2-0.68-0.2-1.1c0-0.38,0.09-0.75,0.26-1.11c0.17-0.36,0.42-0.69,0.75-0.98c0.32-0.29,0.71-0.52,1.18-0.7
					c0.46-0.18,0.98-0.27,1.55-0.27c0.7,0,1.29,0.06,1.79,0.19c0.49,0.13,0.8,0.21,0.92,0.25l-0.15,2.02
					c-0.32-0.13-0.67-0.24-1.03-0.34c-0.36-0.1-0.78-0.15-1.26-0.15c-0.53,0-0.91,0.09-1.14,0.28c-0.23,0.19-0.35,0.44-0.35,0.77
					c0,0.29,0.11,0.54,0.33,0.74s0.51,0.41,0.89,0.65l1.28,0.82c0.34,0.21,0.63,0.41,0.88,0.61c0.25,0.2,0.46,0.4,0.63,0.61
					s0.29,0.44,0.38,0.68s0.13,0.52,0.13,0.83c0,0.5-0.1,0.95-0.3,1.34c-0.2,0.39-0.48,0.72-0.84,1c-0.36,0.27-0.78,0.48-1.27,0.63
					c-0.49,0.15-1.03,0.22-1.62,0.22c-0.67,0-1.27-0.06-1.79-0.18c-0.53-0.12-0.93-0.23-1.21-0.35L135.24,253.86z" />
    </g>
    <polygon id="border" points="7.04,225.62 145.28,225.62 145.28,226.68 7.04,226.68 7.04,225.62" />
    <g id="parent-organization">
      <path d="M12.24,202.65c0-0.63-0.13-0.69-0.66-0.69h-0.69c-1.48,0-1.08,1.71-1.67,1.71c-0.27,0-0.2-0.29-0.17-0.46l0.21-1.72
					c0.01-0.13,0.01-0.31,0.21-0.31c1.21,0,1.68,0.05,3.59,0.05c1.91,0,2.78-0.05,4-0.05c0.2,0,0.2,0.18,0.21,0.31l0.14,1.2
					c0.03,0.16,0.17,0.67-0.17,0.67c-0.52,0-0.1-1.45-1.61-1.4h-1.11c-0.54,0-0.67,0.06-0.67,0.69v5.9c0,1.6,1.67,1.23,1.67,1.59
					c0,0.31-0.26,0.28-0.64,0.28c-0.52,0-0.95-0.05-1.83-0.05c-0.87,0-1.3,0.05-1.83,0.05c-0.24,0-0.46,0.01-0.46-0.28
					c0-0.51,1.48,0.12,1.48-1.43V202.65z" />
      <path d="M25.39,204.53c0,0.56,0,0.65,0.56,0.65h0.82c1.12,0,1.16-1.2,1.42-1.2c0.09,0,0.24-0.03,0.25,0.32l0.09,2.33
					c0.01,0.17,0.09,0.64-0.22,0.64c-0.42,0-0.05-1.38-1.41-1.38h-0.97c-0.6,0-0.55,0.16-0.55,0.92v1.67c0,0.81-0.05,1.28,0.89,1.28
					c3.24,0,3.05-1.71,3.55-1.71c0.05,0,0.14,0.04,0.14,0.29c0,1.02-0.77,2.09-1.84,2.09c-1.98,0-2.77-0.05-3.42-0.05
					c-0.41,0-0.95,0.05-1.67,0.05c-0.17,0-0.25-0.07-0.25-0.15c0-0.6,0.99,0.11,0.99-1.48v-6.11c0-1.17-1.48-0.76-1.48-1.28
					c0-0.12,0.1-0.22,0.29-0.22c0.54,0,1.48,0.05,3.47,0.05c0.93,0,1.83-0.05,2.98-0.05c0.17,0,0.26,0.13,0.26,0.25l0.05,1.29
					c0.01,0.17,0.08,0.6-0.22,0.6c-0.61,0,0.4-1.53-2.11-1.53c-1.58,0-1.63,0.01-1.63,0.91V204.53z" />
      <path d="M43.54,203.98c0.01,0.13,0.06,0.43-0.16,0.43c-0.21,0-0.3-0.28-0.39-0.44c-0.65-1.25-1.8-2.39-3.32-2.39
					c-1.92,0-2.98,1.83-2.98,3.58c0,1.84,1.04,4.42,3.54,4.42c2.02,0,2.91-1.71,3.25-1.71c0.07,0,0.18,0.06,0.18,0.14
					c0,0.52-1.38,2.5-4.16,2.5c-3.83,0-4.41-3.34-4.41-4.37c0-2.19,1.35-5.08,4.63-5.08c1.58,0,2.58,0.8,2.98,0.8
					c0.25,0,0.26-0.43,0.44-0.43c0.07,0,0.16,0.02,0.16,0.08L43.54,203.98z" />
      <path d="M58.16,208.57c0,1.66,1.36,1.17,1.36,1.68c0,0.17-0.11,0.16-0.27,0.16c-0.43,0-1.2-0.05-1.74-0.05
					c-0.47,0-0.98,0.05-1.65,0.05c-0.18,0-0.26-0.05-0.26-0.15c0-0.45,0.95-0.1,0.95-1.37v-2.35c0-0.55,0.04-0.69-0.53-0.69h-3.49
					c-0.6,0-0.64,0.13-0.64,0.71v2.05c0,1.62,1.62,1.15,1.62,1.62c0,0.08,0.03,0.18-0.39,0.18c-0.53,0-0.97-0.05-1.91-0.05
					c-0.55,0-1.1,0.05-1.75,0.05c-0.16,0-0.29-0.03-0.29-0.2c0-0.52,1.11-0.05,1.11-1.67v-5.82c0-1.42-1.48-0.85-1.48-1.34
					c0-0.2,0.39-0.21,0.64-0.21c0.39,0,0.78,0.05,1.46,0.05c0.78,0,1.3-0.05,1.68-0.05c0.18,0,0.3,0.07,0.3,0.2c0,0.4-1,0.02-1,1.19
					v2.07c0,0.35,0.05,0.52,0.33,0.52h3.88c0.38,0,0.46-0.3,0.46-0.59v-1.84c0-1.44-1.44-0.97-1.44-1.34c0-0.23,0.12-0.21,0.3-0.21
					c0.54,0,0.87,0.05,1.68,0.05c0.68,0,1.16-0.05,1.72-0.05c0.22,0,0.27,0.04,0.27,0.15c0,0.5-0.94-0.06-0.94,1.21V208.57z" />
      <path d="M66.23,203.68c0-2.5-1.46-1.66-1.46-2.28c0-0.12,0.07-0.22,0.22-0.22c0.25,0,0.48,0.05,0.73,0.05
					c0.34,0,0.68-0.05,1.37-0.05c0.42,0,0.26,0.09,0.5,0.34l5.25,5.76c0.17,0.18,0.33,0.34,0.4,0.34c0.08,0,0.1-0.16,0.1-0.48v-4.34
					c0-1.19-1.59-0.96-1.59-1.39c0-0.09,0.04-0.22,0.21-0.22c0.21,0,0.59,0.05,1.49,0.05c0.82,0,1.28-0.05,1.4-0.05
					c0.25,0,0.25,0.13,0.25,0.17c0,0.39-1.11,0.08-1.11,1.45v7.32c0,0.29,0,0.39-0.16,0.39c-0.18,0-0.25-0.08-0.34-0.18l-6.28-6.79
					c-0.09-0.1-0.17-0.17-0.23-0.17c-0.08,0-0.1,0.09-0.1,0.21v4.44c0,2.51,1.67,1.62,1.67,2.23c0,0.18-0.33,0.17-0.5,0.17
					c-0.64,0-1.08-0.05-1.54-0.05c-0.42,0-0.77,0.05-1.12,0.05c-0.14,0-0.4,0.07-0.4-0.16c0-0.52,1.25-0.29,1.25-1.62V203.68z" />
      <path d="M85.08,201.05c2.54-0.02,4.49,1.66,4.49,4.43c0,1.83-0.8,5.03-4.96,5.03c-2.62,0-4.39-1.76-4.39-4.41
					C80.23,203.23,81.96,201.08,85.08,201.05z M84.99,209.94c2.25-0.04,2.98-1.79,2.98-3.96c0-2.88-1.59-4.4-3.28-4.37
					c-2.21,0.04-2.86,1.84-2.86,3.73C81.83,207.25,82.65,209.98,84.99,209.94z" />
      <path d="M97.66,208.47c0,0.81-0.05,1.28,0.89,1.28c3.24,0,3.05-1.71,3.55-1.71c0.05,0,0.14,0.04,0.14,0.29
					c0,1.02-0.77,2.09-1.84,2.09c-1.98,0-2.77-0.05-3.42-0.05c-0.4,0-0.95,0.05-1.67,0.05c-0.17,0-0.25-0.07-0.25-0.15
					c0-0.6,0.99,0.11,0.99-1.48v-6.17c0-1.11-1.48-0.76-1.48-1.22c0-0.12,0.15-0.22,0.42-0.22c0.52,0,1.28,0.05,1.77,0.05
					c1.11,0,1.27-0.05,1.47-0.05c0.28,0,0.34,0.01,0.34,0.17c0,0.5-0.93,0.01-0.93,1.01V208.47z" />
      <path d="M111.98,201.05c2.55-0.02,4.49,1.66,4.49,4.43c0,1.83-0.8,5.03-4.96,5.03c-2.62,0-4.39-1.76-4.39-4.41
					C107.12,203.23,108.86,201.08,111.98,201.05z M111.89,209.94c2.24-0.04,2.97-1.79,2.97-3.96c0-2.88-1.59-4.4-3.28-4.37
					c-2.21,0.04-2.86,1.84-2.86,3.73C108.73,207.25,109.55,209.98,111.89,209.94z" />
      <path d="M130.36,204.21c0,0.17-0.08,0.23-0.33,0.23c-0.29,0-0.29-2.85-3.72-2.85c-1.21,0-2.94,0.8-2.94,4.1
					c0,1.79,0.91,4.16,3.03,4.16c2.35,0,2.39-1.09,2.39-1.85c0-2.04-1.55-1.15-1.55-1.64c0-0.38,0.42-0.28,0.64-0.28
					c0.62,0,1.22,0.05,1.83,0.05c0.48,0,0.94-0.05,1.41-0.05c0.06,0,0.14,0.05,0.14,0.18c0,0.56-0.9-0.14-0.9,1.53
					c0,0.54,0.04,0.9,0.04,1.08c0,0.21-0.01,0.27-0.13,0.34c-1.24,0.68-2.69,1.28-4.11,1.28c-3.83,0-4.41-3.34-4.41-4.37
					c0-2.19,1.34-5.08,4.63-5.08c1.81,0,2.91,0.85,3.26,0.85c0.29,0,0.31-0.37,0.52-0.37c0.2,0,0.2,0.29,0.2,0.5V204.21z" />
      <path d="M137.33,202.36c-0.51-0.94-1.31-0.61-1.31-1.03c0-0.15,0.16-0.15,0.46-0.15c0.24,0,0.55,0.05,1.2,0.05
					c0.55,0,1.11,0,1.91-0.05c0.18-0.01,0.22,0.09,0.22,0.17c0,0.3-0.72,0.2-0.72,0.64c0,0.12,0.03,0.27,0.18,0.6l1.18,2.43
					c0.21,0.43,0.3,0.6,0.4,0.6c0.08,0,0.17-0.11,0.33-0.39l1.19-2.16c0.25-0.44,0.24-0.62,0.24-0.72c0-0.86-1.27-0.57-1.27-0.98
					c0-0.13,0.09-0.2,0.25-0.2c0.17,0,0.44,0.05,1.12,0.05c0.99,0,1.14-0.05,1.5-0.05c0.17,0,0.24,0.05,0.24,0.14
					c0,0.35-0.59,0.09-1.36,1.53l-1.71,3.24c-0.13,0.26-0.17,0.35-0.17,0.82v1.94c0,1.65,1.61,0.75,1.61,1.41
					c0,0.14-0.2,0.16-0.42,0.16c-0.11,0-0.31-0.05-1.95-0.05c-1.18,0-1.55,0.05-1.92,0.05c-0.21,0-0.35-0.03-0.35-0.15
					c0-0.58,1.42,0.13,1.42-1.52v-1.7c0-0.43-0.05-0.54-0.21-0.82L137.33,202.36z" />
      <path d="M13.83,190.11c0,2.06,1.87,1.29,1.87,1.82c0,0.19-0.15,0.25-0.53,0.25c-0.62,0-1.24-0.06-2.54-0.06
					c-0.72,0-1.44,0.06-1.87,0.06c-0.15,0-0.18-0.12-0.18-0.2c0-0.59,1.2-0.15,1.2-1.74v-8.02c0-1.52-1.89-1.05-1.89-1.64
					c0-0.28,0.42-0.23,0.57-0.23c0.65,0,1.31,0.07,1.89,0.07c0.6,0,1.2-0.07,2.16-0.07c0.5,0,0.58,0.03,0.58,0.23
					c0,0.57-1.25-0.03-1.25,1.56V190.11z" />
      <path d="M19.32,183.56c0-3.21-1.87-2.12-1.87-2.93c0-0.15,0.08-0.28,0.29-0.28c0.32,0,0.62,0.07,0.93,0.07
					c0.44,0,0.87-0.07,1.76-0.07c0.53,0,0.33,0.12,0.63,0.43l6.72,7.37c0.22,0.23,0.42,0.43,0.52,0.43c0.1,0,0.13-0.2,0.13-0.62
					v-5.57c0-1.52-2.04-1.22-2.04-1.77c0-0.12,0.05-0.28,0.27-0.28c0.27,0,0.75,0.07,1.9,0.07c1.05,0,1.64-0.07,1.79-0.07
					c0.32,0,0.32,0.17,0.32,0.22c0,0.5-1.42,0.1-1.42,1.86v9.38c0,0.37,0,0.5-0.2,0.5c-0.23,0-0.32-0.1-0.44-0.24l-8.04-8.69
					c-0.12-0.13-0.22-0.22-0.3-0.22c-0.1,0-0.13,0.12-0.13,0.27v5.68c0,3.21,2.14,2.07,2.14,2.86c0,0.23-0.42,0.22-0.64,0.22
					c-0.82,0-1.39-0.06-1.97-0.06c-0.53,0-0.99,0.06-1.44,0.06c-0.18,0-0.52,0.09-0.52-0.2c0-0.67,1.6-0.37,1.6-2.08V183.56z" />
      <path d="M36.31,184.65c0,0.72,0,0.84,0.72,0.84h1.05c1.44,0,1.49-1.54,1.82-1.54c0.12,0,0.3-0.03,0.32,0.42l0.12,2.98
					c0.02,0.22,0.12,0.82-0.28,0.82c-0.53,0-0.07-1.77-1.81-1.77h-1.24c-0.77,0-0.7,0.2-0.7,1.17v2.48c0,1.85,1.89,1.44,1.89,1.89
					c0,0.34-0.35,0.27-0.77,0.27c-0.64,0-1.25-0.06-1.99-0.06c-0.52,0-1.22,0.06-2.14,0.06c-0.22,0-0.32-0.08-0.32-0.18
					c0-0.77,1.27,0.13,1.27-1.91v-7.83c0-1.5-1.89-0.97-1.89-1.64c0-0.15,0.13-0.28,0.37-0.28c0.69,0,1.89,0.07,4.45,0.07
					c1.19,0,2.34-0.07,3.81-0.07c0.22,0,0.34,0.17,0.34,0.32l0.07,1.66c0.02,0.22,0.1,0.77-0.28,0.77c-0.79,0,0.52-1.96-2.71-1.96
					c-2.02,0-2.09,0.02-2.09,1.17V184.65z" />
      <path d="M49.38,180.2c3.26-0.03,5.75,2.12,5.75,5.67c0,2.34-1.02,6.44-6.35,6.44c-3.36,0-5.62-2.26-5.62-5.65
					C43.16,182.99,45.39,180.23,49.38,180.2z M49.27,191.59c2.88-0.05,3.81-2.29,3.81-5.07c0-3.69-2.04-5.63-4.2-5.6
					c-2.82,0.05-3.66,2.36-3.66,4.78C45.22,188.14,46.27,191.64,49.27,191.59z" />
      <path d="M58.51,182.45c0-1.87-1.82-1.25-1.82-1.86c0-0.17,0.17-0.25,0.37-0.25c0.77,0,0.9,0.07,1.96,0.07
					c1.12,0,2.26-0.07,3.38-0.07c3.66,0,4,2.36,4,3.13c0,1.07-0.49,1.69-0.97,2.09c-0.48,0.38-0.97,0.53-0.97,0.7
					c0,0.1,1.42,2.52,2.62,4.63c0.15,0.27,0.47,0.27,0.6,0.27c0.17,0,0.33-0.1,0.5-0.1c0.15,0,0.25,0.1,0.25,0.23
					c0,0.52-1.1,0.88-1.77,0.88c-1.32,0-1.85-1.05-2.37-2.02l-1.4-2.64c-0.38-0.74-0.69-0.89-1.52-0.89c-0.89,0-0.79,0.12-0.79,0.7
					v2.89c0,1.79,1.65,1.1,1.65,1.7c0,0.15-0.13,0.25-0.52,0.25c-0.29,0-0.74-0.06-1.44-0.06c-0.9,0-1.74,0.06-2.57,0.06
					c-0.19,0-0.54,0.05-0.54-0.28c0-0.53,1.35,0.02,1.35-2.09V182.45z M60.57,185.45c0,0.42,0.62,0.42,1.12,0.42
					c2.54,0,2.64-0.94,2.64-1.92c0-1.64-0.94-2.88-2.62-2.88c-0.62,0-1.14,0-1.14,1V185.45z" />
      <path d="M72.26,189.34c-0.1,2.86,1.74,1.89,1.74,2.57c0,0.07,0.07,0.27-0.4,0.27c-0.6,0-0.95-0.06-1.72-0.06
					c-0.82,0-1.41,0.06-1.65,0.06c-0.25,0-0.32-0.13-0.32-0.24c0-0.6,1.37-0.18,1.44-1.94l0.23-6.72c0.1-2.76-1.69-1.97-1.69-2.71
					c0-0.1,0.08-0.23,0.2-0.23c0.22,0,0.47,0.07,1,0.07c0.38,0,1-0.07,1.55-0.07c0.18,0,0.35-0.02,0.58,0.48l3.68,8.03
					c0.07,0.15,0.12,0.27,0.22,0.27c0.1,0,0.25-0.3,0.27-0.35l3.88-8.09c0.05-0.12,0.1-0.33,0.42-0.33c0.4,0,0.72,0.07,0.97,0.07
					c0.3,0,0.62-0.07,1.09-0.07c0.45,0,0.49,0.07,0.49,0.2c0,0.6-1.64-0.05-1.57,1.87l0.28,7.4c0.08,2.19,1.62,1.46,1.62,2.07
					c0,0.28-0.22,0.28-0.8,0.28c-0.49,0-0.95-0.06-1.44-0.06c-1.09,0-1.49,0.06-1.87,0.06c-0.35,0-0.77,0.05-0.77-0.25
					c0-0.57,1.31-0.02,1.2-1.87L80.64,185c-0.02-0.5-0.03-0.75-0.13-0.75c-0.07,0-0.27,0.33-0.52,0.89l-3.16,6.6
					c-0.1,0.21-0.17,0.47-0.43,0.47c-0.25,0-0.34-0.28-0.42-0.47l-3.24-7.21c-0.05-0.1-0.12-0.28-0.18-0.28
					c-0.12,0-0.12,0.3-0.12,0.42L72.26,189.34z" />
      <path d="M89.85,188.07c-0.28,0-0.64,0.07-1.02,1.17c-0.12,0.33-0.35,0.92-0.35,1.32c0,1.21,1.8,0.94,1.8,1.39
					c0,0.35-0.52,0.24-0.87,0.24c-0.53,0-1.04-0.06-1.57-0.06c-0.5,0-0.99,0.06-1.47,0.06c-0.23,0-0.5,0.03-0.5-0.18
					c0-0.38,0.85-0.29,1.27-1.22l4.53-10.12c0.12-0.27,0.2-0.58,0.42-0.58c0.15,0,0.18,0.03,0.4,0.53l4.51,10.23
					c0.53,1.19,1.44,0.54,1.44,1.09c0,0.28-0.15,0.25-0.6,0.25c-0.6,0-1.05-0.06-2.16-0.06c-0.74,0-1.35,0.06-1.84,0.06
					c-0.3,0-0.52,0.03-0.52-0.2c0-0.48,1.19-0.3,1.19-1.32c0-0.37-0.12-0.67-0.3-1.12c-0.55-1.31-0.64-1.47-1.07-1.47H89.85z
					 M92.63,187.17c0.3,0,0.54,0.02,0.54-0.15c0-0.23-0.1-0.42-0.18-0.62l-1.37-3.03c-0.1-0.13-0.05-0.13-0.13-0.13
					c-0.03,0-0.1,0.02-0.18,0.2L90,186.4c-0.08,0.2-0.18,0.38-0.18,0.62c0,0.17,0.23,0.15,0.53,0.15H92.63z" />
      <path d="M102.83,182.24c0-0.8-0.17-0.89-0.85-0.89h-1.31c-1.89,0-1.39,2.19-2.14,2.19c-0.35,0-0.25-0.37-0.22-0.59l0.27-2.21
					c0.02-0.17,0.02-0.4,0.27-0.4c1.55,0,2.58,0.07,5.03,0.07c2.44,0,3.13-0.07,4.69-0.07c0.25,0,0.25,0.23,0.26,0.4l0.18,1.54
					c0.03,0.2,0.22,0.85-0.22,0.85c-0.67,0-0.13-1.86-2.06-1.79h-1.24c-0.68,0-0.61,0.08-0.61,0.89v7.56c0,2.06,2.14,1.57,2.14,2.04
					c0,0.4-0.33,0.35-0.82,0.35c-0.67,0-1.22-0.06-2.34-0.06c-1.12,0-1.67,0.06-2.34,0.06c-0.3,0-0.58,0.02-0.58-0.35
					c0-0.65,1.89,0.15,1.89-1.84V182.24z" />
      <path d="M114.5,190.11c0,2.06,1.87,1.29,1.87,1.82c0,0.19-0.15,0.25-0.53,0.25c-0.62,0-1.24-0.06-2.54-0.06
					c-0.72,0-1.44,0.06-1.87,0.06c-0.15,0-0.18-0.12-0.18-0.2c0-0.59,1.21-0.15,1.21-1.74v-8.02c0-1.52-1.89-1.05-1.89-1.64
					c0-0.28,0.42-0.23,0.57-0.23c0.65,0,1.3,0.07,1.89,0.07c0.6,0,1.2-0.07,2.16-0.07c0.5,0,0.59,0.03,0.59,0.23
					c0,0.57-1.25-0.03-1.25,1.56V190.11z" />
      <path d="M124,180.2c3.26-0.03,5.75,2.12,5.75,5.67c0,2.34-1.02,6.44-6.35,6.44c-3.36,0-5.62-2.26-5.62-5.65
					C117.78,182.99,120,180.23,124,180.2z M123.88,191.59c2.88-0.05,3.81-2.29,3.81-5.07c0-3.69-2.04-5.63-4.2-5.6
					c-2.82,0.05-3.66,2.36-3.66,4.78C119.84,188.14,120.89,191.64,123.88,191.59z" />
      <path d="M132.88,183.56c0-3.21-1.87-2.12-1.87-2.93c0-0.15,0.08-0.28,0.29-0.28c0.32,0,0.62,0.07,0.94,0.07
					c0.43,0,0.87-0.07,1.76-0.07c0.53,0,0.33,0.12,0.63,0.43l6.72,7.37c0.22,0.23,0.42,0.43,0.52,0.43c0.1,0,0.14-0.2,0.14-0.62
					v-5.57c0-1.52-2.04-1.22-2.04-1.77c0-0.12,0.05-0.28,0.27-0.28c0.27,0,0.75,0.07,1.91,0.07c1.05,0,1.64-0.07,1.79-0.07
					c0.32,0,0.32,0.17,0.32,0.22c0,0.5-1.42,0.1-1.42,1.86v9.38c0,0.37,0,0.5-0.2,0.5c-0.23,0-0.32-0.1-0.43-0.24l-8.04-8.69
					c-0.12-0.13-0.22-0.22-0.3-0.22c-0.1,0-0.13,0.12-0.13,0.27v5.68c0,3.21,2.14,2.07,2.14,2.86c0,0.23-0.42,0.22-0.64,0.22
					c-0.82,0-1.39-0.06-1.97-0.06c-0.53,0-0.99,0.06-1.44,0.06c-0.18,0-0.52,0.09-0.52-0.2c0-0.67,1.61-0.37,1.61-2.08V183.56z" />
      <path d="M14.1,168.57c0,1.15-0.18,1.82,1.17,1.82c4.62,0,4.36-2.44,5.06-2.44c0.08,0,0.21,0.06,0.21,0.41
					c0,1.45-1.1,2.98-2.62,2.98c-2.83,0-3.85-0.07-4.78-0.07c-0.58,0-1.36,0.07-2.38,0.07c-0.24,0-0.35-0.09-0.35-0.2
					c0-0.86,1.42,0.15,1.42-2.12v-8.81c0-1.58-2.1-1.08-2.1-1.73c0-0.17,0.21-0.32,0.6-0.32c0.74,0,1.82,0.07,2.53,0.07
					c1.58,0,1.81-0.07,2.1-0.07c0.39,0,0.48,0.02,0.48,0.24c0,0.71-1.32,0.02-1.32,1.44V168.57z" />
      <path d="M26.56,169.03c0,2.29,2.09,1.43,2.09,2.03c0,0.2-0.17,0.28-0.6,0.28c-0.69,0-1.38-0.07-2.83-0.07
					c-0.8,0-1.6,0.07-2.08,0.07c-0.17,0-0.21-0.13-0.21-0.22c0-0.65,1.34-0.17,1.34-1.94v-8.94c0-1.69-2.1-1.17-2.1-1.82
					c0-0.32,0.47-0.26,0.63-0.26c0.73,0,1.45,0.07,2.1,0.07c0.67,0,1.34-0.07,2.4-0.07c0.56,0,0.65,0.04,0.65,0.26
					c0,0.63-1.39-0.04-1.39,1.73V169.03z" />
      <path d="M33.25,160.9c0-2.57-1.97-1.54-1.97-2.46c0-0.3,0.22-0.28,0.32-0.28c0.13,0,0.26,0.07,1.12,0.07
					c1.58,0,3.17-0.07,4.73-0.07c4.56,0,4.58,2.76,4.58,3.2c0,1.17-0.71,2.2-2.03,2.63v0.04c2.27,0.58,2.98,1.58,2.98,3.26
					c0,2.46-1.71,4.06-4.75,4.06c-2.78,0-3.71-0.07-4.64-0.07c-0.45,0-0.93,0.07-1.32,0.07c-0.43,0-0.61-0.03-0.61-0.3
					c0-0.62,1.6-0.11,1.6-1.92V160.9z M35.54,162.89c0,0.92,0.19,0.99,1.27,1.06h1.12c1.42,0,1.96-0.71,1.96-2.09
					c0-1.71-1.38-2.91-3.03-2.91c-1.27,0-1.3,0.71-1.3,1.77V162.89z M35.54,168.31c0,1.77,0.48,2.29,2.29,2.29
					c1.82,0,2.77-1.21,2.77-3.02c0-1.12-0.54-2.79-3.93-2.79c-1.1,0-1.13,0.46-1.13,1.43V168.31z" />
      <path d="M47.16,160.5c0-2.09-2.03-1.4-2.03-2.07c0-0.19,0.19-0.28,0.41-0.28c0.86,0,1.01,0.07,2.18,0.07
					c1.25,0,2.51-0.07,3.76-0.07c4.08,0,4.45,2.63,4.45,3.48c0,1.19-0.54,1.88-1.08,2.33c-0.54,0.43-1.08,0.6-1.08,0.78
					c0,0.11,1.45,2.81,2.79,5.16c0.17,0.29,0.52,0.29,0.67,0.29c0.18,0,0.37-0.11,0.56-0.11c0.17,0,0.28,0.11,0.28,0.26
					c0,0.58-1.23,0.99-1.97,0.99c-1.47,0-2.07-1.17-2.64-2.25l-1.56-2.94c-0.43-0.82-0.63-0.99-1.56-0.99
					c-0.99,0-0.87,0.13-0.87,0.78v3.22c0,1.99,1.84,1.23,1.84,1.9c0,0.17-0.15,0.28-0.58,0.28c-0.32,0-0.82-0.07-1.6-0.07
					c-1.01,0-1.94,0.07-2.87,0.07c-0.2,0-0.6,0.06-0.6-0.32c0-0.6,1.51,0.02,1.51-2.33V160.5z M49.45,163.84
					c0,0.47,0.69,0.47,1.25,0.47c2.83,0,2.94-1.04,2.94-2.14c0-1.83-1.04-3.2-2.92-3.2c-0.69,0-1.27,0-1.27,1.12V163.84z" />
      <path d="M63.52,166.76c-0.32,0-0.71,0.07-1.14,1.3c-0.13,0.37-0.39,1.03-0.39,1.47c0,1.34,2.01,1.04,2.01,1.55
					c0,0.39-0.58,0.26-0.97,0.26c-0.6,0-1.15-0.07-1.75-0.07c-0.56,0-1.1,0.07-1.64,0.07c-0.26,0-0.56,0.04-0.56-0.2
					c0-0.43,0.95-0.32,1.42-1.36l5.05-11.26c0.13-0.3,0.22-0.65,0.47-0.65c0.17,0,0.21,0.04,0.45,0.6l5.03,11.39
					c0.6,1.32,1.6,0.6,1.6,1.21c0,0.31-0.17,0.28-0.67,0.28c-0.67,0-1.17-0.07-2.4-0.07c-0.82,0-1.51,0.07-2.05,0.07
					c-0.33,0-0.58,0.04-0.58-0.22c0-0.54,1.32-0.33,1.32-1.47c0-0.41-0.13-0.74-0.33-1.25c-0.61-1.45-0.71-1.64-1.19-1.64H63.52z
					 M66.6,165.76c0.34,0,0.6,0.02,0.6-0.17c0-0.26-0.11-0.46-0.2-0.69l-1.53-3.37c-0.11-0.15-0.06-0.15-0.15-0.15
					c-0.04,0-0.11,0.02-0.2,0.22l-1.43,3.29c-0.09,0.22-0.2,0.43-0.2,0.69c0,0.19,0.26,0.17,0.6,0.17H66.6z" />
      <path d="M76.31,160.5c0-2.09-2.03-1.4-2.03-2.07c0-0.19,0.18-0.28,0.41-0.28c0.85,0,1,0.07,2.18,0.07
					c1.25,0,2.51-0.07,3.76-0.07c4.08,0,4.45,2.63,4.45,3.48c0,1.19-0.54,1.88-1.08,2.33c-0.54,0.43-1.08,0.6-1.08,0.78
					c0,0.11,1.58,2.81,2.92,5.16c0.17,0.29,0.52,0.29,0.67,0.29c0.19,0,0.37-0.11,0.56-0.11c0.17,0,0.28,0.11,0.28,0.26
					c0,0.58-1.23,0.99-1.97,0.99c-1.47,0-2.07-1.17-2.64-2.25l-1.56-2.94c-0.43-0.82-0.76-0.99-1.7-0.99
					c-0.99,0-0.87,0.13-0.87,0.78v3.22c0,1.99,1.84,1.23,1.84,1.9c0,0.17-0.15,0.28-0.58,0.28c-0.31,0-0.82-0.07-1.6-0.07
					c-1.01,0-1.94,0.07-2.87,0.07c-0.21,0-0.6,0.06-0.6-0.32c0-0.6,1.51,0.02,1.51-2.33V160.5z M78.6,163.84
					c0,0.47,0.69,0.47,1.25,0.47c2.83,0,2.94-1.04,2.94-2.14c0-1.83-1.04-3.2-2.92-3.2c-0.69,0-1.27,0-1.27,1.12V163.84z" />
      <path d="M93.43,169.03c0,2.29,2.09,1.43,2.09,2.03c0,0.2-0.17,0.28-0.6,0.28c-0.69,0-1.38-0.07-2.83-0.07
					c-0.8,0-1.6,0.07-2.09,0.07c-0.17,0-0.2-0.13-0.2-0.22c0-0.65,1.34-0.17,1.34-1.94v-8.94c0-1.69-2.11-1.17-2.11-1.82
					c0-0.32,0.47-0.26,0.63-0.26c0.73,0,1.45,0.07,2.1,0.07c0.67,0,1.34-0.07,2.4-0.07c0.56,0,0.65,0.04,0.65,0.26
					c0,0.63-1.4-0.04-1.4,1.73V169.03z" />
      <path d="M102.36,162.94c0,0.8,0,0.93,0.8,0.93h1.17c1.6,0,1.66-1.71,2.03-1.71c0.13,0,0.33-0.04,0.35,0.47l0.13,3.31
					c0.02,0.24,0.13,0.91-0.32,0.91c-0.6,0-0.08-1.97-2.01-1.97h-1.38c-0.86,0-0.78,0.22-0.78,1.3v2.38c0,1.15-0.07,1.82,1.27,1.82
					c4.62,0,4.36-2.44,5.06-2.44c0.07,0,0.2,0.06,0.2,0.41c0,1.45-1.1,2.98-2.63,2.98c-2.83,0-3.95-0.07-4.88-0.07
					c-0.58,0-1.36,0.07-2.38,0.07c-0.24,0-0.35-0.09-0.35-0.2c0-0.86,1.42,0.15,1.42-2.12v-8.72c0-1.67-2.1-1.08-2.1-1.82
					c0-0.17,0.15-0.32,0.41-0.32c0.76,0,2.1,0.07,4.95,0.07c1.32,0,2.61-0.07,4.24-0.07c0.24,0,0.37,0.19,0.37,0.35l0.07,1.84
					c0.02,0.24,0.11,0.86-0.32,0.86c-0.88,0,0.58-2.18-3.02-2.18c-2.25,0-2.33,0.02-2.33,1.3V162.94z" />
      <path d="M112.02,167.52c-0.06-0.26-0.24-0.8,0.23-0.8c0.3,0,0.33,0.16,0.41,0.41c0.6,1.79,1.75,3.48,3.82,3.48
					c1.45,0,2.57-0.89,2.57-2.38c0-1.58-1.17-1.82-4.17-3.15c-1.6-0.71-2.7-1.43-2.7-3.39c0-2.14,1.49-3.7,3.67-3.7
					c1.53,0,2.31,0.72,2.87,0.72c0.24,0,0.71-0.3,0.95-0.3c0.28,0,0.22,0.28,0.26,0.71l0.21,2.49c0.04,0.41-0.02,0.63-0.43,0.63
					c-0.43,0-0.71-3.46-3.91-3.46c-1.23,0-2.07,0.71-2.07,1.96c0,1.25,1.03,1.49,3.52,2.59c1.99,0.88,3.22,1.68,3.22,4.04
					c0,2.44-1.71,4.09-4.15,4.09c-1.14,0-2.09-0.44-3.16-0.69c-0.47-0.11-0.45-0.26-0.54-0.71L112.02,167.52z" />
      <path d="M131.47,162.71c0-0.35-0.39-0.69-0.39-1.8c0-1.77,1.43-2.9,3.12-2.9c1.23,0,2.38,0.69,2.66,0.69
					c0.26,0,0.34-0.28,0.61-0.28c0.18,0,0.2,0.09,0.2,0.38c0,0.95,0.15,1.91,0.26,2.86c0.02,0.19-0.06,0.34-0.28,0.34
					c-0.17,0-0.26-0.15-0.35-0.45c-0.45-1.47-1.45-2.83-3.11-2.83c-0.87,0-1.3,0.54-1.3,1.38c0,2.66,6.17,7.88,6.64,7.88
					c0.07,0,0.72-0.78,0.72-1.9c0-2.32-2.12-1.36-2.12-2.1c0-0.15,0.09-0.26,0.35-0.26c0.32,0,0.74,0.07,1.92,0.07
					c0.91,0,1.24-0.07,1.54-0.07c0.18,0,0.3,0.06,0.3,0.24c0,0.43-0.63,0.15-0.72,0.8c-0.35,2.69-1.15,3.51-1.15,3.64
					c0,0.74,2.01,1.73,2.49,1.73c0.71,0,0.69-0.13,0.95-0.13c0.15,0,0.26,0.04,0.26,0.22c0,0.3-0.95,1.24-2.31,1.24
					c-1.14,0-2.42-0.93-3.03-1.45c-1.14,1.02-3.09,1.45-4.58,1.45c-4.2,0-5.56-2.88-5.56-4.51
					C128.61,163.68,131.47,162.92,131.47,162.71z M138.04,169.68c0-0.43-4.31-2.99-5.84-5.78c-0.17-0.3-0.35-0.56-0.5-0.56
					c-0.35,0-1.39,0.56-1.39,1.93c0,2.05,2.6,5.1,5.46,5.1C136.51,170.37,138.04,170.02,138.04,169.68z" />
      <path d="M81.69,121.37c8.02,0,13.07,7.27,13.07,14.75c0,7.6-4.81,12.41-10.82,12.41c-8.14,0-13.1-7.36-13.1-14.96
					C70.84,127.08,74.78,121.37,81.69,121.37z M82.22,149.77c9.16,0,15.52-5.97,15.52-15.21c0-8.5-6.44-14.54-14.82-14.54
					c-8.43,0-15.06,6.21-15.06,14.75C67.85,143.42,73.3,149.77,82.22,149.77z" />
      <path d="M106.04,123.21c0-1.55,0.83-1.48,2.27-1.48c3.92,0,7.63,1.63,7.63,6.5c0,4.94-3.83,5.66-5.55,5.66
					c-1.88,0-4.35,0.19-4.35-0.56V123.21z M113.9,134.21c2.81-1.11,5.04-3.78,5.04-6.89c0-7.7-8.83-6.91-9.47-6.91
					c-2.08,0-4.34,0.16-6.64,0.16c-2.04,0-1.84-0.16-2.56-0.16c-0.48,0-0.79,0.24-0.79,0.48c0,1.36,3.42-0.28,3.42,3.55v20.3
					c0,3.04-2.91,2.48-2.91,3.48c0,0.24,0.17,0.44,0.4,0.44c1.52,0,3.03-0.16,4.53-0.16c3.31,0,4.23,0.16,4.59,0.16
					c0.31,0,0.68,0.08,0.68-0.32c0-1.36-4.15-0.12-4.15-3.56v-8.43c0-0.4-0.24-1.12,1.03-1.12c4.48,0,3.88-0.12,5.32,2.12l4.44,6.99
					c1.52,2.28,3.07,4.32,5.98,4.32c0.36,0,3.52,0,3.52-0.48c0-0.96-2.88,0.52-5.75-3.88L113.9,134.21z" />
      <path d="M125.55,122.92c-1.04-1.72-2.99-1.24-2.99-1.91c0-0.28,0.24-0.6,0.52-0.6c1.08,0,1.83,0.17,4.54,0.17
					c1.31,0,2.39-0.17,2.79-0.17c0.28,0,0.75,0.04,0.75,0.4c0,0.67-1.87,0.71-1.87,1.87c0,0.64,0.48,1.28,0.72,1.63l4.81,7.71
					c0.32,0.48,0.56,0.72,0.8,0.72c0.19,0,0.43-0.28,0.75-0.8l4.11-6.67c0.28-0.43,0.84-1.12,0.84-2.19c0-1.96-2.99-1.12-2.99-2.07
					c0-0.52,0.4-0.6,0.83-0.6c0.95,0,1.96,0.17,2.91,0.17c1.15,0,2.31-0.17,3.46-0.17c0.24,0,0.44,0.28,0.44,0.48
					c0,0.44-0.67,0.6-0.96,0.76c-1.07,0.64-1.59,1.75-2.23,2.75l-5.58,8.7c-0.64,0.99-0.96,1.2-0.96,1.79v9.78
					c0,3.48,3.27,2.36,3.27,3.6c0,0.36-0.37,0.4-0.92,0.4c-0.6,0-2.92-0.17-4.37-0.17c-1.79,0-3.22,0.17-3.58,0.17
					c-0.36,0-0.6-0.04-0.6-0.48c0-1.12,3.07-0.08,3.07-2.92v-9.66c0-0.76-0.6-1.56-0.91-2.03L125.55,122.92z" />
      <path d="M63.31,144.98c0.2,3.35,3.15,1.88,3.15,3.27c0,0.4-0.52,0.4-0.95,0.4c-0.76,0-2.15-0.18-3.74-0.18
					c-1.23,0-2.51,0.18-3.45,0.18c-0.35,0-0.44-0.2-0.44-0.36c0-1.2,2.51-0.32,2.47-3.27l-1.08-15.46c0-1-0.2-1.56-0.44-1.56
					c-0.28,0-0.64,0.36-1.05,1.2l-8.25,16.82c-0.2,0.35-0.84,1.99-1.24,1.99c-0.4,0-0.67-0.88-0.8-1.16l-8.49-17.77
					c-0.12-0.32-0.32-0.44-0.49-0.44c-0.12,0-0.24,0.2-0.27,0.6l-1.17,13.98c-0.2,5.3,3.58,3.55,3.58,4.98c0,0.4-0.44,0.44-1,0.44
					c-0.52,0-2.31-0.18-3.48-0.18c-2.07,0-2.75,0.18-3.52,0.18c-0.28,0-0.4-0.2-0.4-0.48c0-1.36,2.55,0.28,2.83-3.87
					c0.48-6.51,0.96-10.74,0.96-14.97c0-9.38-3.09-7.14-3.09-8.5c0-0.36,0.31-0.44,0.68-0.44c0.72,0,1.43,0.17,2.19,0.17
					c0.72,0,1.42-0.17,2.12-0.17c0.56,0,0.64,0.68,0.84,1.12l9.52,20.27c0.44,0.84,0.6,1.2,0.88,1.2c0.2,0,0.59-0.84,1.24-2.16
					l9.51-19.08c0.23-0.44,0.55-1.39,1.03-1.36c0.4,0,1.67,0.17,1.86,0.17c0.92,0,1.28-0.17,1.91-0.17c0.24,0,0.4,0.24,0.4,0.48
					c0,1.28-3.19-0.44-3.03,4.31L63.31,144.98z" />
      <path d="M14.84,132.05c0,1.36-0.08,1.36,1.51,1.36h4.3c4.13,0,3.07-3.2,4.01-3.2c0.32,0,0.43,0.44,0.43,0.76
					c0,1.4-0.05,2.75-0.05,4.02c0,1.04,0.05,2.08,0.05,3.15c0,0.36-0.16,0.52-0.43,0.52c-1.22,0,0.12-3.51-3.21-3.51h-5.89
					c-0.84,0-0.72,0.68-0.72,1.28v7.35c0,2.36-0.31,3.32,3.02,3.32c9.18,0,10.53-4.12,11.05-4.12c0.27,0,0.32,0.4,0.32,0.48
					c0,1.44-1.03,2.84-1.99,3.88c-1.28,1.45-2.15,1.37-3.89,1.37c-3.03,0-6.04-0.25-9.07-0.17c-1.58,0.04-3.26,0.17-4.84,0.17
					c-0.36,0-0.6-0.09-0.6-0.41c0.08-0.48,0.48-0.41,1.75-1.05c1.03-0.48,1.12-1.6,1.12-3.47v-18.19c0-1.8,0-3.72-2.15-4.04
					c-0.32-0.08-1.19-0.16-1.19-0.62c0-0.32,0.24-0.48,1.39-0.48c7.5,0,9.57,0.17,11.25,0.17c0.79,0,4.44-0.17,5.68-0.17
					c0.31,0,0.39,0.4,0.39,0.87c0,4.43-0.56,4.75-0.79,4.75c-0.96,0-0.32-1.92-0.96-2.83c-1.02-1.36-5.15-1.12-6.75-1.12
					c-3.81,0-3.74-0.16-3.74,2.51V132.05z" />
    </g>
    <g id="shield">
      <path d="M76.92,91.9c-40.6-18.76-35.73-60.7-35.71-80.3l71.84,0.08C113.02,31.27,117.55,73.22,76.92,91.9z M41.2,8.37
					l-3.09,3.25c-0.04,2.34-0.09,5.29-0.11,6.74c-0.29,23.03,1.27,58.85,38.73,76.18c19.82-9.18,34.83-24.97,38.78-49.45
					c2.29-14.17,0.92-27.64,0.93-36.68L41.2,8.37z" />
      <path d="M61.56,59.84c-2.87,3.08-5.71,6.11-6.67,7.14c-0.23,0.23-0.24,0.48-0.12,0.63c0.21,0.21,0.47,0.49,0.58,0.51
					c0.18,0.04,0.31,0.12,0.62-0.22c0.13-0.13,3.28-3.19,7.02-6.78c0,0-0.38-0.2-0.71-0.49C61.96,60.34,61.56,59.84,61.56,59.84z" />
      <path d="M63.5,59.03c0.73,0.71,1.93,1.39,1.93,1.39l-0.67,0.64c-0.25,0.27-1.17-0.16-2.07-0.96c-0.9-0.8-1.41-1.67-1.16-1.95
						l0.73-0.66C62.26,57.49,62.76,58.32,63.5,59.03z" />
      <path d="M96.3,66.94c0.59-0.59,0.62-1.14,0.62-1.14l0.65,0.31c0.19,0.21,0.04,0.96-0.57,1.55c-0.61,0.59-1.43,0.79-1.62,0.59
								l-0.35-0.7C95.04,67.55,95.69,67.57,96.3,66.94z" />
      <path d="M95.32,65.89c0.39-0.35,0.52-0.82,0.52-0.82l0.42,0.29c0.14,0.14,0.01,0.62-0.43,1.05
								c-0.45,0.43-1.04,0.58-1.18,0.43l-0.25-0.47C94.41,66.38,94.93,66.24,95.32,65.89z" />
      <path d="M92.71,29.17c1.33,1.18,2.65,2.15,3.72,2.71c-0.04-0.05-0.08-0.1-0.11-0.15c-1.03-1.5-3.77-3.6-5.9-5.07
						C90.86,27.34,91.55,28.16,92.71,29.17z" />
      <path d="M97.3,33.12l-0.75,0.66c-1.04,0.39-3.42-1.41-5.28-3.06c-1.25-1.09-3.75-3.86-3.05-4.98l0.31-0.32
						c-0.21-0.13-0.42-0.25-0.56-0.33c-0.21-0.11-0.49-0.19-0.8-0.15c-0.29,0.03-0.54,0.16-0.56,0.4c-0.05,0.5,0.24,1.16,0.63,1.95
						c0.4,0.78,1.95,3.04,5.09,5.55c1.42,1.14,3.07,1.85,4.26,2.28c0.21,0.08,0.96,0.24,1.28-0.09c0.33-0.33-0.04-0.9-0.29-1.46
						C97.54,33.44,97.41,33.27,97.3,33.12z" />
      <path d="M95.11,64.74c-1.17-1.38-10.48-12.27-11.89-13.95c-1.51-1.79-11-13.1-14.14-17.02c-3.63-4.55-4.34-10.85-4.34-11.61
					c0-0.27,0-0.54,0.01-0.76c0-0.08-0.2-0.05-0.25,0.03c-0.17,0.36-1.27,2.65-4.73,5.94c-2.46,2.35-5.59,4.16-7.02,4.75
					c-0.06,0.02-0.1,0.12-0.07,0.14c0.15,0.11,2.46,0.2,2.46,0.2c3.25,0.27,4.59,1.33,7.56,3.22c3.42,2.18,11.68,10.21,13.25,11.72
					c1.57,1.51,17.64,17.59,17.98,17.98c0.04,0.05,0.24,0.26,0.28,0.29c0,0,0.32-0.02,0.61-0.25c0.28-0.23,0.42-0.51,0.41-0.52
					C95.22,64.87,95.16,64.8,95.11,64.74z M93.54,64.28c0,0-8.86-9.01-14.49-14.82C67.98,38,62.89,34.46,60.18,33.01
					c-1.54-0.82-3.24-1.2-3.47-1.32c-0.24-0.13-0.28-0.31,0.16-0.7c0.61-0.54,1.59-0.97,2.24-1.22c0.23-0.09,1.01,0.17,1.79,0.51
					c1.51,0.65,2.77,1.42,6.11,4.74c1.13,1.11,2.38,2.42,3.81,3.94C80.87,49.64,93.77,64.1,93.77,64.1L93.54,64.28z" />
      <path d="M101.52,25.13c-0.34,0.39-0.9,1.28-1.25,1.59c0.37-0.33,0.57-1.12,0.18-3.22c-0.28-1.46-0.46-1.94-0.66-2.43
					c-0.11-0.27-0.28-0.2-0.46,0.01c-0.19,0.21-0.64,0.97-0.64,1.01c-0.05,0.18,0,0.01-0.68-2.11c-0.43-1.34-0.6-2.29-0.59-2.76
					c0.01-0.25,0.02-0.51,0.03-0.69c0.02-0.16-0.09-0.16-0.51,0.02c-0.23,0.1-2.05,1.36-2.79,3.27c-0.43,1.1-0.47,2.01-0.54,1.46
					c-0.12-1.08-0.1-1.07-0.21-1.03c-0.58,0.19-2.58,1.12-2.69,3.78c-0.52-0.14-0.93-0.13-1.13,0.09c-0.65,0.71,0.8,3.11,3.24,5.38
					c2.45,2.26,4.95,3.53,5.61,2.82c0.26-0.28,0.17-0.85-0.17-1.56c0.23-0.03,0.45-0.07,0.68-0.14c0,0,2.81-0.53,2.86-3.06
					C101.82,25,101.52,25.13,101.52,25.13z M100.74,28.35c-0.15,0.27-0.69,0.94-1.5,1.3c-0.89,0.4-2.11,0.46-2.74,0.27
					c-2.8-0.86-4.49-3.73-4.49-3.73c-2.21-3.58,0.75-5.1,1-5.15c0,0-0.31,1.16-0.12,1.97c0.18,0.72,0.6,1.26,0.73,1.66
					c0.28,0.79-0.1,1.33-0.28,1.59c-0.1,0.13,0.16,0.06,0.22,0.02c0.04-0.03,0.07-0.07,0.16-0.14c0.41-0.31,0.78-0.78,0.67-1.28
					c-0.26-1.11-1.06-1.8-0.11-4.08c0.58-1.39,1.92-2.76,2.04-2.84c0.21-0.14,0.35-0.32,0.35-0.17c0,0.15,0.24,1.18,0.37,1.84
					c0.12,0.66,0.89,2.01,0.73,3.89c-0.17,1.87-3.24,3.93-3.66,4.05c-0.14,0.05-0.36,0.17-0.41,0.23c-0.11,0.11,0.04,0.13,0.13,0.14
					c0.15,0.03,1.45-0.28,2.51-1.01c0.87-0.61,1.7-1.53,2-2.08c0.53-1.01,0.79-2.4,0.84-2.54c0.09-0.21,0.18-0.2,0.21-0.08
					c0.02,0.11,0.25,0.94,0.33,1.35c0.05,0.24,0.18,0.88,0.18,1.6c0.01,1.41-0.4,2.06-1.23,2.7c-0.48,0.36-0.99,0.49-1.55,0.55
					l-0.2,0.03c-0.08,0.01-0.15,0.04,0.02,0.12c0.06,0.03,0.12,0.04,0.2,0.09c0.47,0.22,1.45,0.19,2.09-0.2
					c0.28-0.17,0.68-0.45,1.2-0.97c0.2-0.18,0.46-0.54,0.5-0.42C100.95,27.2,101,27.85,100.74,28.35z" />
      <path d="M63.26,18.56c-0.43-0.03-1.37,0.33-2.39,0.88c-3.36,1.82-6.82,4.98-8.76,7.55c-0.62,0.82-1.06,1.56-1.37,2.16
					c-1.04,1.97,0.4,2.44,1.42,2.02c1.63-0.67,3.46-1.79,4.93-3.02c4.13-3.46,6.55-6.72,6.89-8.18
					C64.13,19.31,64.08,18.61,63.26,18.56z M62.77,20.61c0,0-0.62,1.25-1.82,2.64c-1.13,1.33-2.47,2.69-2.83,3.02
					c-0.05,0.05-0.26,0.02-0.17-0.19c0.63-1.56-0.33-2.58-0.21-2.94c0.12-0.44,0.39-1.02,0.56-1.16c1.27-1.19,4.17-2.5,4.3-2.39
					c0.08,0.08,0.3,0.17,0.33,0.38C62.95,20.21,62.77,20.61,62.77,20.61z" />
      <path d="M75.7,48.3c-0.68,0.65-11.12,10.67-11.12,10.67c0.15,0.14,0.59,0.47,0.59,0.47s9.59-9.21,10.31-9.88
					c0.19-0.18,0.62-0.56,0.78-0.7L75.7,48.3z" />
      <path d="M95.39,35.95c0.15-0.01,0.31-0.03,0.45-0.03c0.15-0.01,0.36-0.05,0.4-0.07c0.09-0.07,0.14-0.17-0.03-0.18
					c-0.49-0.01-1.39-0.26-2.38-0.74c-0.63,0.17-1.64,0.44-2.83,0.98c-1.5,0.67-4.8,2.65-11.56,8.84l0.53,0.61
					c2.34-2.11,5.48-4.87,7.18-5.99c3.02-1.97,5.21-2.85,6.66-3.2C94.24,36.07,94.89,35.99,95.39,35.95z" />
      <path d="M88.81,31.04c-1.86-1.93-2.44-3.32-2.74-4.34c-0.01-0.05-0.02-0.08-0.03-0.09c-0.01-0.02-0.09-0.04-0.12,0.04
					c-0.01,0.04-0.02,0.09-0.03,0.12c-0.16,1.99,0.02,2.84-0.81,4.87c-0.71,1.7-1.95,3.87-3.64,5.84c-0.98,1.15-2.66,3.03-4.18,4.78
					l1.08,1.27c0.1-0.13,0.44-0.49,0.83-0.9c5.15-5.51,9.64-8.92,11.25-10.1C89.84,32.05,89.3,31.54,88.81,31.04z" />
      <path d="M73.55,46.34c-2.17,2.46-4.35,4.87-4.99,5.58c-0.54,0.6-5.29,5.71-5.29,5.71s0.11,0.2,0.26,0.37
					c0.15,0.16,0.4,0.39,0.4,0.39s9.97-10.23,10.72-11.02L73.55,46.34z" />
    </g>
  </g>
</svg>
