<svg version="1.1" id="logo" xmlns="http://www.w3.org/2000/svg" xmlns:xlink="http://www.w3.org/1999/xlink" x="0px" y="0px" viewBox="0 0 668 222" preserveAspectRatio="xMinYMin meet" style="enable-background:new 0 0 668 222;" aria-labelledby="header-logo-title" xml:space="preserve">
    Emory Libraries
    <title id="header-logo-title">Emory Libraries</title>
    <g id="group-wrapper">
        <g id="unit">
            <path id="path14" d="M399.6,51h13.2v3.7h-8.6v6.7h8.1v3.7h-8.1v7.4h9v3.7h-13.6V51"/>
            <path id="path16" d="M416.1,60.6c0-0.7,0-1.3,0-1.8c0-0.5,0-0.9-0.1-1.3h4.5c0,0.5,0,1,0.1,1.5c0,0.5,0,1,0,1.5h0.1
                c0.2-0.4,0.4-0.8,0.7-1.1c0.3-0.4,0.6-0.7,1-1c0.4-0.3,0.8-0.6,1.3-0.8c0.6-0.2,1.1-0.3,1.7-0.3c0.7,0,1.4,0.1,2,0.3
                c0.5,0.2,0.9,0.4,1.3,0.8c0.3,0.3,0.6,0.6,0.9,1l0.5,0.9c0.2-0.3,0.5-0.6,0.8-1c0.3-0.4,0.6-0.7,1-1c0.4-0.3,0.9-0.5,1.4-0.7
                c0.6-0.2,1.2-0.3,1.8-0.3c0.9,0,1.7,0.1,2.5,0.5c0.7,0.3,1.2,0.8,1.6,1.5c0.4,0.7,0.7,1.5,0.9,2.3c0.2,1,0.3,2,0.3,3.1v11.5h-4.5
                V64.5c0.1-0.9-0.1-1.8-0.6-2.6c-0.4-0.6-1.1-0.9-1.8-0.9c-0.5,0-0.9,0.1-1.3,0.3c-0.4,0.2-0.7,0.5-0.9,0.9
                c-0.3,0.4-0.5,0.8-0.6,1.3c-0.1,0.5-0.2,1-0.2,1.5v11.2H426V64.5c0.1-0.9-0.1-1.8-0.6-2.6c-0.4-0.6-1.1-0.9-1.8-0.9
                c-0.5,0-0.9,0.1-1.3,0.3c-0.4,0.2-0.7,0.5-0.9,0.9c-0.3,0.4-0.5,0.8-0.6,1.3c-0.1,0.5-0.2,1-0.2,1.5v11.2h-4.5L416.1,60.6"/>
            <path id="path18" d="M447.6,66.9c0,0.8,0,1.5,0.1,2.3c0.1,0.7,0.3,1.4,0.6,2.1c0.2,0.6,0.6,1.1,1.1,1.5c1.1,0.7,2.5,0.7,3.5,0
                c0.5-0.4,0.8-0.9,1.1-1.5c0.3-0.7,0.5-1.4,0.5-2.1c0.2-1.5,0.2-3.1,0-4.6c-0.1-0.7-0.3-1.4-0.5-2c-0.2-0.6-0.6-1.1-1.1-1.5
                c-1.1-0.7-2.5-0.7-3.5,0c-0.5,0.4-0.9,0.9-1.1,1.5c-0.3,0.7-0.5,1.3-0.6,2C447.6,65.3,447.6,66.1,447.6,66.9z M443,66.9
                c-0.1-1.6,0.2-3.2,0.7-4.7c0.4-1.1,1.1-2.1,1.9-2.9c0.8-0.7,1.7-1.2,2.7-1.5c1.9-0.6,3.9-0.6,5.7,0c1,0.3,1.9,0.8,2.6,1.5
                c0.8,0.8,1.5,1.8,1.9,2.9c0.5,1.5,0.8,3.1,0.7,4.7c0.1,1.6-0.2,3.2-0.7,4.8c-0.4,1.1-1.1,2.1-1.9,2.9c-0.7,0.7-1.6,1.2-2.6,1.5
                c-1.9,0.5-3.8,0.5-5.7,0c-1-0.3-1.9-0.8-2.6-1.5c-0.9-0.8-1.5-1.8-1.9-2.9C443.2,70.1,442.9,68.5,443,66.9"/>
            <path id="path20" d="M462.2,60.7c0-0.6,0-1.1,0-1.7c0-0.5,0-1-0.1-1.4h4c0,0.6,0,1.1,0.1,1.7s0.1,1.1,0,1.7h0
                c0.2-0.4,0.4-0.8,0.6-1.2c0.2-0.4,0.6-0.8,0.9-1.2c0.4-0.4,0.9-0.7,1.4-0.9c0.6-0.3,1.2-0.4,1.8-0.4c0.1,0,0.3,0,0.4,0l0.4,0.1
                v4.2c-0.4-0.1-0.8-0.2-1.3-0.2c-0.5,0-0.9,0.1-1.4,0.2c-0.5,0.2-0.9,0.4-1.2,0.8c-0.4,0.4-0.7,0.9-0.9,1.4
                c-0.2,0.7-0.4,1.4-0.3,2.2v10.2h-4.5L462.2,60.7"/>
            <path id="path22" d="M481.3,71.6L481.3,71.6l3.6-14h4.3l-5.7,18.7l-1,3.3c-0.2,0.6-0.4,1.2-0.7,1.8c-0.3,0.5-0.6,1-1.1,1.4
                c-0.4,0.4-0.9,0.7-1.5,0.9c-0.6,0.2-1.3,0.4-2,0.3c-0.5,0-1.1,0-1.6-0.1c-0.4-0.1-0.8-0.2-1.2-0.3l0.2-3.4
                c0.3,0.1,0.5,0.2,0.8,0.2c0.3,0.1,0.6,0.1,0.9,0.1c0.6,0.1,1.2-0.2,1.5-0.6c0.5-0.6,0.8-1.3,1-2.1l0.3-1.6L473,57.6h4.6
                L481.3,71.6"/>
            <path id="path24" d="M499.8,51h4.6v21.5h8.3v3.7h-12.9V51"/>
            <path id="path26" d="M515,57.6h4.5v18.5H515V57.6z M515,49.7h4.6v4.4H515V49.7"/>
            <path id="path28" d="M527.8,66.8c0,0.8,0.1,1.6,0.2,2.5c0.1,0.7,0.3,1.4,0.6,2c0.2,0.5,0.6,1,1.1,1.4c0.5,0.3,1.1,0.5,1.7,0.5
                c1.1,0.1,2.2-0.5,2.6-1.6c0.5-1.6,0.7-3.2,0.7-4.8c0.1-1.5-0.2-3-0.7-4.5c-0.7-1.4-2.4-2.1-3.8-1.4c-0.1,0.1-0.2,0.1-0.4,0.2
                c-0.5,0.3-0.8,0.8-1.1,1.3c-0.3,0.6-0.5,1.3-0.6,2C527.8,65.2,527.8,66,527.8,66.8z M527.8,49.2v11.1h0.1c0.2-0.4,0.4-0.7,0.7-1.1
                c0.3-0.4,0.6-0.7,1-1c0.4-0.3,0.9-0.5,1.4-0.7c0.6-0.2,1.2-0.3,1.8-0.2c1.9-0.1,3.7,0.9,4.7,2.5c1.2,2.1,1.8,4.6,1.7,7.1
                c0,1.2-0.1,2.5-0.4,3.7c-0.2,1.1-0.6,2.1-1.2,3c-0.5,0.8-1.2,1.6-2,2.1c-0.9,0.5-1.9,0.8-3,0.8c-0.6,0-1.3-0.1-1.9-0.3
                c-0.5-0.1-0.9-0.3-1.3-0.6c-0.4-0.3-0.7-0.6-1-1c-0.3-0.4-0.5-0.8-0.7-1.2h-0.1c0,0.6,0,1.2,0,1.7c0,0.4,0,0.8-0.1,1.2h-4.2
                c0-0.3,0.1-0.8,0.1-1.3c0-0.6,0-1.2,0-1.8V49.2H527.8"/>
            <path id="path30" d="M542,60.7c0-0.6,0-1.1,0-1.7s-0.1-1-0.1-1.4h4c0,0.6,0,1.1,0.1,1.7s0.1,1.1,0,1.7h0.1
                c0.2-0.4,0.4-0.8,0.6-1.2c0.2-0.4,0.6-0.8,0.9-1.2c0.4-0.4,0.9-0.7,1.4-0.9c0.6-0.3,1.2-0.4,1.8-0.4c0.1,0,0.3,0,0.4,0l0.4,0.1
                v4.2c-0.4-0.1-0.8-0.2-1.3-0.2c-0.5,0-0.9,0.1-1.4,0.2c-0.5,0.2-0.9,0.4-1.2,0.8c-0.4,0.4-0.7,0.9-0.9,1.4
                c-0.2,0.7-0.4,1.4-0.3,2.2v10.2H542L542,60.7"/>
            <path id="path32" d="M563.1,67.1h-0.4c-1.5-0.1-3.1,0.2-4.5,0.7c-1.1,0.5-1.7,1.6-1.6,2.8c0,0.8,0.2,1.5,0.8,2
                c0.5,0.5,1.3,0.8,2.1,0.8c1.1,0.1,2.2-0.4,2.8-1.4c0.6-1.2,0.9-2.5,0.8-3.9L563.1,67.1z M554.3,58.7c0.8-0.3,1.5-0.6,2.3-0.9
                c1.1-0.3,2.3-0.5,3.5-0.5c1.2,0,2.4,0.1,3.5,0.5c0.8,0.3,1.6,0.8,2.2,1.5c0.5,0.7,0.9,1.5,1.1,2.4c0.2,1,0.3,2.1,0.3,3.1v8.1
                c0,0.6,0,1.2,0.1,1.9c0.1,0.6,0.1,1,0.2,1.4h-4c-0.1-0.4-0.2-0.8-0.2-1.2c0-0.4,0-0.9,0-1.3h-0.1c-0.5,0.8-1.2,1.5-2,2
                c-0.9,0.6-2.1,0.9-3.2,0.8c-0.7,0-1.4-0.1-2.1-0.4c-0.7-0.2-1.3-0.6-1.8-1.1c-1.1-1-1.7-2.5-1.7-4c0-1.1,0.2-2.2,0.7-3.1
                c0.5-0.8,1.2-1.5,2-1.9c1-0.5,2-0.9,3.1-1c1.3-0.2,2.6-0.3,3.9-0.3h0.9V64c0-0.4-0.1-0.9-0.2-1.3c-0.2-0.9-0.9-1.6-1.7-1.9
                c-0.5-0.2-1.1-0.3-1.6-0.3c-0.5,0-1.1,0.1-1.6,0.2c-0.5,0.1-1,0.3-1.4,0.5c-0.4,0.2-0.8,0.4-1.2,0.6c-0.3,0.2-0.6,0.4-0.8,0.6
                L554.3,58.7"/>
            <path id="path34" d="M570.9,60.7c0-0.6,0-1.1,0-1.7c0-0.5-0.1-1-0.1-1.4h4c0,0.6,0,1.1,0.1,1.7s0.1,1.1,0,1.7h0.1
                c0.2-0.4,0.4-0.8,0.6-1.2c0.2-0.4,0.6-0.8,0.9-1.2c0.4-0.4,0.9-0.7,1.4-0.9c0.6-0.3,1.2-0.4,1.8-0.4c0.1,0,0.3,0,0.4,0l0.4,0.1
                v4.2c-0.4-0.1-0.8-0.2-1.3-0.2c-0.5,0-0.9,0.1-1.4,0.2c-0.5,0.2-0.9,0.4-1.2,0.8c-0.4,0.4-0.7,0.9-0.9,1.4
                c-0.2,0.7-0.4,1.4-0.3,2.2v10.2h-4.5L570.9,60.7"/>
            <path id="path36" d="M583.1,57.6h4.5v18.5h-4.5V57.6z M583,49.7h4.6v4.4H583V49.7"/>
            <path id="path38" d="M601.5,65.3c0-3.3-1-4.9-3.1-4.9c-0.5,0-1,0.1-1.5,0.4c-0.4,0.3-0.7,0.7-1,1.1c-0.3,0.5-0.5,1-0.6,1.6
                c-0.1,0.6-0.2,1.2-0.2,1.8H601.5z M604.9,75.3c-0.5,0.2-1.2,0.4-2.1,0.7c-1.1,0.3-2.3,0.5-3.4,0.4c-1.3,0-2.6-0.2-3.8-0.8
                c-1-0.5-1.9-1.1-2.7-2c-0.7-0.9-1.2-1.9-1.5-3c-0.3-1.2-0.5-2.4-0.5-3.6c0-1.3,0.1-2.6,0.5-3.9c0.3-1.1,0.8-2.2,1.5-3.1
                c0.7-0.9,1.5-1.6,2.5-2.1c1-0.5,2.1-0.8,3.2-0.8c1,0,1.9,0.2,2.8,0.5c0.9,0.3,1.7,0.9,2.4,1.6c0.7,0.9,1.3,1.9,1.6,3
                c0.4,1.5,0.6,3.1,0.6,4.7V68h-10.8c-0.1,1.3,0.3,2.6,1.1,3.7c0.9,1,2.3,1.5,3.7,1.3c1.1,0,2.1-0.1,3.2-0.5c0.6-0.3,1.2-0.6,1.7-1
                L604.9,75.3"/>
            <path id="path40" d="M608.1,71.8l0.7,0.3c0.3,0.1,0.7,0.3,1.1,0.4c0.4,0.2,0.9,0.3,1.3,0.4c0.5,0.1,1,0.1,1.5,0.1
                c0.7,0,1.4-0.1,2-0.4c0.6-0.3,0.9-0.8,0.8-1.5c0-0.4-0.1-0.8-0.4-1.1c-0.4-0.5-1-0.9-1.6-1.3l-1.8-1.1c-0.5-0.3-1-0.6-1.4-0.9
                c-0.5-0.3-0.9-0.6-1.3-1c-0.4-0.4-0.7-0.9-0.9-1.4c-0.2-0.6-0.4-1.2-0.3-1.9c0-0.7,0.2-1.3,0.5-1.9c0.3-0.6,0.7-1.2,1.3-1.7
                c0.6-0.5,1.3-0.9,2-1.2c0.8-0.3,1.8-0.5,2.7-0.5c1,0,2.1,0.1,3.1,0.3c0.8,0.2,1.4,0.4,1.6,0.4l-0.2,3.5c-0.6-0.2-1.2-0.4-1.8-0.6
                c-0.7-0.2-1.4-0.3-2.2-0.2c-0.7-0.1-1.4,0.1-2,0.5c-0.7,0.6-0.8,1.7-0.1,2.4c0,0,0.1,0.1,0.1,0.1c0.5,0.4,1,0.8,1.5,1.1l2.2,1.4
                c0.5,0.3,1,0.6,1.5,1c0.4,0.3,0.8,0.6,1.1,1c0.3,0.3,0.5,0.7,0.7,1.2c0.1,0.5,0.2,0.9,0.2,1.4c0,0.8-0.2,1.6-0.5,2.3
                c-0.3,0.7-0.8,1.3-1.4,1.7c-0.7,0.5-1.4,0.9-2.2,1.1c-0.9,0.3-1.8,0.4-2.8,0.4c-1,0-2.1-0.1-3.1-0.3c-0.7-0.1-1.4-0.3-2.1-0.6
                L608.1,71.8"/>
        </g>
        <path id="vertical-border" d="M369.8,174.9V47.1h1.5v127.8H369.8"/>
        <g id="parent-organization">
            <path id="path72" d="M251.3,89.2c12.4,0,21-8.1,21-20.5c0-11.5-8.7-19.6-20-19.6S232,57.4,232,68.9
                C232,80.6,239.4,89.2,251.3,89.2L251.3,89.2z M250.6,50.8c10.8,0,17.7,9.8,17.7,19.9c0,10.3-6.5,16.8-14.6,16.8
                c-11,0-17.7-9.9-17.7-20.2C236,58.5,241.3,50.8,250.6,50.8"/>
            <path id="path74" d="M294.1,68.5c3.8-1.5,6.8-5.1,6.8-9.3c0-10.4-11.9-9.3-12.8-9.3c-2.8,0-5.9,0.2-9,0.2c-1.2,0-2.3-0.1-3.4-0.2
                c-0.6,0-1.1,0.3-1.1,0.6c0,1.8,4.6-0.4,4.6,4.8v27.4c0,4.1-3.9,3.3-3.9,4.7c0,0.3,0.2,0.6,0.5,0.6c0,0,0,0,0,0
                c2,0,4.1-0.2,6.1-0.2c4.5,0,5.7,0.2,6.2,0.2s0.9,0.1,0.9-0.4c0-1.8-5.6-0.2-5.6-4.8V71.4c0-0.5-0.3-1.5,1.4-1.5
                c6,0,5.2-0.2,7.2,2.9l6,9.4c2.1,3.1,4.1,5.8,8.1,5.8c0.5,0,4.8,0,4.8-0.7c0-1.3-3.9,0.7-7.8-5.2L294.1,68.5z M283.5,53.7
                c0-2.1,1.1-2,3.1-2c5.3,0,10.3,2.2,10.3,8.8s-5.2,7.7-7.5,7.7c-2.5,0-5.9,0.3-5.9-0.8L283.5,53.7"/>
            <path id="path76" d="M309.8,53.3c-1.4-2.3-4-1.7-4-2.6c0-0.4,0.3-0.8,0.7-0.8c1.5,0,2.5,0.2,6.1,0.2c1.8,0,3.2-0.2,3.8-0.2
                c0.4,0,1,0.1,1,0.5c0,0.9-2.5,1-2.5,2.5c0.1,0.8,0.5,1.6,1,2.2l6.5,10.4c0.4,0.6,0.8,1,1.1,1s0.6-0.4,1-1.1l5.5-9
                c0.7-0.9,1.1-1.9,1.1-3c0-2.6-4-1.5-4-2.8c0-0.7,0.5-0.8,1.1-0.8c1.3,0,2.6,0.2,3.9,0.2c1.6,0,3.1-0.2,4.7-0.2
                c0.3,0,0.6,0.3,0.6,0.6c0,0.6-0.9,0.8-1.3,1c-1.4,0.9-2.1,2.4-3,3.7L325.6,67c-0.9,1.3-1.3,1.6-1.3,2.4v13.2
                c0,4.7,4.4,3.2,4.4,4.9c0,0.5-0.5,0.5-1.2,0.5s-3.9-0.2-5.9-0.2c-2.4,0-4.4,0.2-4.8,0.2s-0.8-0.1-0.8-0.7c0-1.5,4.1-0.1,4.1-3.9
                v-13c-0.2-1-0.6-2-1.2-2.7L309.8,53.3"/>
            <path id="path78" d="M225.8,83c0.3,4.5,4.2,2.5,4.2,4.4c0,0.5-0.7,0.5-1.3,0.5c-1,0-2.9-0.2-5-0.2c-1.7,0-3.4,0.2-4.7,0.2
                c-0.5,0-0.6-0.3-0.6-0.5c0-1.6,3.4-0.4,3.3-4.4l-1.6-20.9c0-1.3-0.3-2.1-0.6-2.1s-0.9,0.5-1.4,1.6l-11.1,22.7
                c-0.3,0.5-1.1,2.7-1.7,2.7s-0.9-1.2-1.1-1.6l-11.5-24c-0.2-0.4-0.4-0.6-0.6-0.6s-0.3,0.3-0.4,0.8l-1.6,18.9
                c-0.3,7.2,4.8,4.8,4.8,6.7c0,0.5-0.6,0.6-1.4,0.6s-3.1-0.2-4.7-0.2c-2.8,0-3.7,0.2-4.8,0.2c-0.4,0-0.5-0.3-0.5-0.7
                c0-1.8,3.4,0.4,3.8-5.2c0.6-8.8,1.3-14.5,1.3-20.2c0-12.7-4.2-9.7-4.2-11.5c0-0.5,0.4-0.6,0.9-0.6c1,0,1.9,0.2,3,0.2
                s1.9-0.2,2.9-0.2c0.8,0,0.9,0.9,1.1,1.5l12.9,27.4c0.6,1.1,0.8,1.6,1.2,1.6s0.8-1.1,1.7-2.9l12.8-25.7c0.3-0.6,0.8-1.9,1.4-1.8
                c0.6,0,2.2,0.2,2.5,0.2c1.2,0,1.7-0.2,2.6-0.2c0.3,0,0.6,0.3,0.5,0.6c0,1.7-4.3-0.6-4.1,5.8L225.8,83"/>
            <path id="path80" d="M160.4,65.6c0,1.8-0.1,1.8,2,1.8h5.8c5.6,0,4.1-4.3,5.4-4.3c0.4,0,0.6,0.6,0.6,1c0,1.9-0.1,3.7-0.1,5.4
                c0,1.4,0.1,2.8,0.1,4.3c0,0.5-0.2,0.7-0.6,0.7c-1.6,0,0.2-4.7-4.3-4.7h-8c-1.1,0-1,0.9-1,1.7v9.9c0,3.2-0.4,4.5,4.1,4.5
                c12.4,0,14.2-5.6,14.9-5.6c0.4,0,0.4,0.5,0.4,0.7c0,1.9-1.4,3.8-2.7,5.2c-1.7,2-2.9,1.8-5.2,1.8c-4.1,0-8.2-0.3-12.2-0.2
                c-2.1,0.1-4.4,0.2-6.5,0.2c-0.5,0-0.8-0.1-0.8-0.6c0.1-0.7,0.7-0.5,2.4-1.4c1.4-0.6,1.5-2.2,1.5-4.7V56.8c0-2.4,0-5-2.9-5.5
                c-0.4-0.1-1.6-0.2-1.6-0.8c0-0.4,0.3-0.6,1.9-0.6c10.1,0,12.9,0.2,15.2,0.2c1.1,0,6-0.2,7.7-0.2c0.4,0,0.5,0.5,0.5,1.2
                c0,6-0.8,6.4-1.1,6.4c-1.3,0-0.4-2.6-1.3-3.8c-1.4-1.8-7-1.5-9.1-1.5c-5.1,0-5-0.2-5,3.4L160.4,65.6"/>
            <path id="path82" d="M159.2,116c0,1.6-0.2,2.4,1.6,2.4c6.2,0,5.8-3.3,6.8-3.3c0.1,0,0.3,0.1,0.3,0.6c0,1.9-1.5,4-3.5,4
                c-3.8,0-5.2-0.1-6.4-0.1c-0.8,0-1.8,0.1-3.2,0.1c-0.3,0-0.5-0.1-0.5-0.3c0-1.2,1.9,0.2,1.9-2.8v-11.8c0-2.1-2.8-1.4-2.8-2.3
                c0-0.2,0.3-0.4,0.8-0.4c1,0,2.4,0.1,3.4,0.1c2.1,0,2.4-0.1,2.8-0.1c0.4,0,0.6,0,0.6,0.3c0,0.9-1.8,0-1.8,1.9L159.2,116"/>
            <path id="path84" d="M176,116.7c0,3.1,2.8,1.9,2.8,2.7c0,0.3-0.2,0.4-0.8,0.4c-0.9,0-1.9-0.1-3.8-0.1c-1.1,0-2.1,0.1-2.8,0.1
                c-0.1,0-0.3-0.1-0.3-0.3c0,0,0,0,0,0c0-0.9,1.8-0.2,1.8-2.6v-12c0-2.3-2.8-1.6-2.8-2.4c0-0.4,0.6-0.3,0.9-0.3c1,0,2,0.1,2.8,0.1
                s1.8-0.1,3.2-0.1c0.8,0,0.9,0.1,0.9,0.3c0,0.8-1.9,0-1.9,2.3V116.7"/>
            <path id="path86" d="M188,115.7c0,2.4,0.6,3.1,3.1,3.1s3.7-1.6,3.7-4.1c0-1.5-0.7-3.8-5.3-3.8c-1.5,0-1.5,0.6-1.5,1.9V115.7z
                 M188,108.4c0,1.2,0.2,1.3,1.7,1.4h1.5c1.9,0,2.6-0.9,2.6-2.8c0-2.2-1.8-3.9-3.9-3.9c0,0-0.1,0-0.1,0c-1.7,0-1.8,1-1.8,2.4V108.4z
                 M184.9,105.7c0-3.4-2.6-2.1-2.6-3.3c0-0.4,0.3-0.4,0.4-0.4c0.5,0.1,1,0.1,1.5,0.1c2.1,0,4.2-0.1,6.4-0.1c6.1,0,6.1,3.7,6.1,4.3
                c0,1.7-1.1,3.1-2.7,3.5v0.1c3.1,0.8,4,2.1,4,4.4c0,3.3-2.3,5.4-6.4,5.4c-3.7,0-5-0.1-6.2-0.1c-0.6,0-1.2,0.1-1.8,0.1
                s-0.8,0-0.8-0.4c0-0.8,2.1-0.2,2.1-2.6L184.9,105.7"/>
            <path id="path88" d="M206.7,109.7c0,0.6,0.9,0.6,1.7,0.6c3.8,0,4-1.4,4-2.9c0-2.4-1.4-4.3-3.9-4.3c-0.9,0-1.7,0-1.7,1.5
                L206.7,109.7z M203.6,105.2c0-2.8-2.7-1.9-2.7-2.8c0-0.2,0.2-0.4,0.6-0.4c1.1,0,1.4,0.1,2.9,0.1s3.4-0.1,5.1-0.1
                c5.5,0,6,3.5,6,4.7c0,1.2-0.5,2.4-1.4,3.1c-0.7,0.6-1.4,0.8-1.4,1.1s1.9,3.8,3.8,6.9c0.2,0.3,0.6,0.4,0.9,0.4
                c0.2,0,0.5-0.2,0.8-0.2c0.2,0,0.4,0.1,0.4,0.3c0,0,0,0,0,0c0,0.8-1.6,1.3-2.6,1.3c-2,0-2.8-1.6-3.6-3l-2.1-4
                c-0.6-1.1-0.9-1.3-2.1-1.3s-1.2,0.2-1.2,1.1v4.3c0,2.7,2.5,1.7,2.5,2.6c0,0.2-0.2,0.4-0.8,0.4s-1.1-0.1-2.1-0.1
                c-1.4,0-2.6,0.1-3.9,0.1c-0.3,0-0.8,0.1-0.8-0.4c0-0.8,2,0,2-3.1V105.2"/>
            <path id="path90" d="M229.8,112.3c0.4,0,0.8,0,0.8-0.2c0-0.3-0.1-0.6-0.3-0.9l-2-4.5c-0.1-0.2-0.1-0.2-0.2-0.2s-0.1,0-0.3,0.3
                l-1.9,4.4c-0.2,0.3-0.3,0.6-0.3,0.9c0,0.2,0.4,0.2,0.8,0.2L229.8,112.3z M225.6,113.6c-0.4,0-1,0.1-1.5,1.8
                c-0.3,0.6-0.5,1.3-0.5,2c0,1.8,2.7,1.4,2.7,2.1c0,0.5-0.8,0.3-1.3,0.3c-0.8,0-1.6-0.1-2.4-0.1s-1.5,0.1-2.2,0.1
                c-0.4,0-0.8,0-0.8-0.3c0-0.6,1.3-0.4,1.9-1.8l6.8-15.1c0.2-0.4,0.3-0.9,0.6-0.9s0.3,0,0.6,0.8l6.7,15.3c0.8,1.8,2.1,0.8,2.1,1.6
                c0,0.4-0.2,0.4-0.9,0.4c-0.9,0-1.6-0.1-3.2-0.1c-1.1,0-2,0.1-2.8,0.1c-0.4,0-0.8,0-0.8-0.3c0-0.7,1.8-0.4,1.8-2
                c0-0.6-0.2-1.2-0.4-1.7c-0.8-2-0.9-2.2-1.6-2.2L225.6,113.6"/>
            <path id="path92" d="M245.9,109.7c0,0.6,0.9,0.6,1.7,0.6c3.8,0,4-1.4,4-2.9c0-2.4-1.4-4.3-3.9-4.3c-0.9,0-1.7,0-1.7,1.5
                L245.9,109.7z M242.8,105.2c0-2.8-2.7-1.9-2.7-2.8c0-0.2,0.2-0.4,0.6-0.4c1.1,0,1.4,0.1,2.9,0.1s3.4-0.1,5.1-0.1
                c5.5,0,6,3.5,6,4.7c0,1.2-0.5,2.4-1.4,3.1c-0.7,0.6-1.4,0.8-1.4,1.1s2.1,3.8,3.9,6.9c0.2,0.3,0.6,0.4,0.9,0.4
                c0.2,0,0.5-0.2,0.8-0.2c0.2,0,0.4,0.1,0.4,0.3c0,0,0,0,0,0c0,0.8-1.6,1.3-2.6,1.3c-2,0-2.8-1.6-3.6-3l-2.1-4
                c-0.3-1-1.3-1.5-2.3-1.3c-1.3,0-1.2,0.2-1.2,1.1v4.3c0,2.7,2.5,1.7,2.5,2.6c0,0.2-0.2,0.4-0.8,0.4s-1.1-0.1-2.1-0.1
                c-1.4,0-2.6,0.1-3.9,0.1c-0.3,0-0.8,0.1-0.8-0.4c0-0.8,2,0,2-3.1L242.8,105.2"/>
            <path id="path94" d="M265.8,116.7c0,3.1,2.8,1.9,2.8,2.7c0,0.3-0.2,0.4-0.8,0.4c-0.9,0-1.9-0.1-3.8-0.1c-1.1,0-2.1,0.1-2.8,0.1
                c-0.1,0-0.3-0.1-0.3-0.3c0,0,0,0,0,0c0-0.9,1.8-0.2,1.8-2.6v-12c0-2.3-2.8-1.6-2.8-2.4c0-0.4,0.6-0.3,0.9-0.3c1,0,2,0.1,2.8,0.1
                c0.8,0,1.8-0.1,3.2-0.1c0.8,0,0.9,0.1,0.9,0.3c0,0.8-1.9,0-1.9,2.3L265.8,116.7"/>
            <path id="path96" d="M277.8,108.5c0,1.1,0,1.2,1.1,1.2h1.6c2.1,0,2.2-2.3,2.7-2.3c0.2,0,0.5-0.1,0.5,0.6l0.2,4.4
                c0,0.3,0.2,1.2-0.4,1.2c-0.8,0-0.1-2.7-2.7-2.7h-1.9c-1.1,0-1.1,0.3-1.1,1.8v3.2c0,1.6-0.1,2.4,1.7,2.4c6.2,0,5.9-3.3,6.8-3.3
                c0.1,0,0.3,0.1,0.3,0.6c0,1.9-1.5,4-3.5,4c-3.8,0-5.3-0.1-6.6-0.1c-0.8,0-1.8,0.1-3.2,0.1c-0.3,0-0.5-0.1-0.5-0.3
                c0-1.2,1.9,0.2,1.9-2.8v-11.7c0-2.2-2.8-1.4-2.8-2.4c0-0.2,0.2-0.4,0.6-0.4c1,0,2.8,0.1,6.7,0.1c1.8,0,3.5-0.1,5.7-0.1
                c0.3,0,0.5,0.2,0.5,0.5c0,0,0,0,0,0l0.1,2.5c0,0.3,0.1,1.2-0.4,1.2c-1.2,0,0.8-2.9-4.1-2.9c-3,0-3.1,0-3.1,1.8L277.8,108.5"/>
            <path id="path98" d="M290.8,114.6c-0.1-0.3-0.3-1.1,0.3-1.1c0.4,0,0.5,0.2,0.5,0.6c0.8,2.4,2.4,4.7,5.1,4.7
                c1.7,0.2,3.3-1.1,3.4-2.9c0-0.1,0-0.2,0-0.3c0-2.1-1.6-2.4-5.6-4.2c-2.1-1-3.6-1.9-3.6-4.6c-0.1-2.6,1.9-4.9,4.5-5
                c0.1,0,0.3,0,0.4,0c2,0,3.1,1,3.9,1c0.3,0,1-0.4,1.3-0.4s0.3,0.4,0.4,1l0.3,3.3c0,0.6,0,0.8-0.6,0.8s-1-4.7-5.3-4.7
                c-1.4-0.2-2.6,0.8-2.8,2.2c0,0.1,0,0.3,0,0.4c0,1.7,1.4,2,4.7,3.5c2.7,1.2,4.3,2.2,4.3,5.4c0.1,2.9-2.1,5.4-5.1,5.5
                c-0.2,0-0.3,0-0.5,0c-1.4-0.1-2.9-0.5-4.2-0.9c-0.6-0.2-0.6-0.3-0.7-1L290.8,114.6"/>
            <path id="path100" d="M325.8,117.5c0-0.6-5.8-4-7.9-7.8c-0.2-0.4-0.5-0.8-0.7-0.8c-1.2,0.3-2,1.4-1.9,2.6c0,2.8,3.5,6.8,7.4,6.8
                C323.7,118.5,325.8,118,325.8,117.5z M317,108.2c-0.3-0.8-0.5-1.6-0.5-2.4c0-2.2,1.8-3.9,4-3.9c0.1,0,0.2,0,0.2,0
                c1.6,0,3.2,0.9,3.6,0.9s0.5-0.4,0.8-0.4s0.3,0.1,0.3,0.5c0,1.3,0.2,2.6,0.4,3.8c0,0.2-0.1,0.4-0.4,0.4s-0.4-0.2-0.5-0.6
                c-0.6-2-2-3.8-4.2-3.8c-0.9-0.1-1.7,0.6-1.8,1.5c0,0.1,0,0.2,0,0.4c0,3.6,8.3,10.6,8.9,10.6c0.7-0.7,1-1.6,1-2.6
                c0-3.1-2.9-1.8-2.9-2.8c0-0.2,0.1-0.3,0.5-0.3s1,0.1,2.6,0.1c1.2,0,1.7-0.1,2.1-0.1c0.2,0,0.4,0.1,0.4,0.3c0,0.6-0.9,0.2-1,1.1
                c-0.1,1.7-0.7,3.4-1.5,4.9c0,1,2.7,2.3,3.4,2.3c0.4,0,0.9-0.1,1.3-0.2c0.2,0,0.4,0,0.4,0.3c0,0.4-1.3,1.7-3.1,1.7
                c-1.5,0-3.2-1.2-4.1-1.9c-1.8,1.3-3.9,2-6.1,1.9c-5.6,0-7.5-3.9-7.5-6.1C313.1,109.4,317,108.4,317,108.2"/>
            <path id="path102" d="M158.9,145c0,2.8,2.5,1.7,2.5,2.4c0,0.2-0.2,0.3-0.7,0.3c-0.8,0-1.7-0.1-3.4-0.1c-1,0-1.9,0.1-2.5,0.1
                c-0.1,0-0.2-0.1-0.3-0.2c0,0,0,0,0,0c0-0.8,1.6-0.2,1.6-2.3v-10.8c0-2-2.5-1.4-2.5-2.2c0-0.4,0.6-0.3,0.8-0.3
                c0.9,0,1.8,0.1,2.5,0.1c0.8,0,1.6-0.1,2.9-0.1c0.7,0,0.8,0,0.8,0.3c0,0.8-1.7,0-1.7,2.1V145"/>
            <path id="path104" d="M166.2,136.2c0-4.3-2.5-2.9-2.5-3.9c0-0.2,0.1-0.4,0.3-0.4c0,0,0,0,0.1,0c0.4,0,0.8,0.1,1.3,0.1
                c0.6,0,1.2-0.1,2.4-0.1c0.7,0,0.4,0.2,0.9,0.6l9,9.9c0.3,0.3,0.6,0.6,0.7,0.6s0.2-0.3,0.2-0.8v-7.5c0-2-2.7-1.6-2.7-2.4
                c0-0.2,0.1-0.4,0.3-0.4c0,0,0,0,0.1,0c0.4,0,1,0.1,2.6,0.1s2.2-0.1,2.4-0.1c0.4,0,0.4,0.2,0.4,0.3c0,0.7-1.9,0.1-1.9,2.5v12.6
                c0,0.5,0,0.7-0.3,0.7c-0.2,0-0.5-0.1-0.6-0.3l-10.8-11.7c-0.2-0.2-0.3-0.3-0.4-0.3s-0.2,0.2-0.2,0.4v7.6c0,4.3,2.9,2.8,2.9,3.8
                c0,0.3-0.6,0.3-0.9,0.3c-1.1,0-1.9-0.1-2.6-0.1s-1.3,0.1-1.9,0.1c-0.2,0-0.7,0.1-0.7-0.3c0-0.9,2.2-0.5,2.2-2.8L166.2,136.2"/>
            <path id="path106" d="M189.1,137.6c0,1,0,1.1,1,1.1h1.4c1.9,0,2-2.1,2.4-2.1c0.2,0,0.4,0,0.4,0.6l0.2,4c0,0.3,0.1,1.1-0.4,1.1
                c-0.7,0-0.1-2.4-2.4-2.4H190c-1,0-0.9,0.3-0.9,1.6v3.3c0,2.5,2.5,1.9,2.5,2.5c0,0.4-0.5,0.4-1,0.4c-0.9,0-1.7-0.1-2.7-0.1
                c-0.7,0-1.6,0.1-2.9,0.1c-0.3,0-0.4-0.1-0.4-0.2c0-1,1.7,0.2,1.7-2.6v-10.5c0-2-2.5-1.3-2.5-2.2c0-0.2,0.2-0.4,0.5-0.4
                c0.9,0,2.5,0.1,6,0.1c1.6,0,3.1-0.1,5.1-0.1c0.2,0,0.4,0.2,0.4,0.4c0,0,0,0,0,0l0.1,2.2c0,0.3,0.1,1-0.4,1c-1.1,0,0.7-2.6-3.6-2.6
                c-2.7,0-2.8,0-2.8,1.6L189.1,137.6"/>
            <path id="path108" d="M206.5,147c3.9-0.1,5.1-3.1,5.1-6.8c0-5-2.7-7.6-5.6-7.5c-3.8,0.1-4.9,3.2-4.9,6.4
                C201,142.3,202.5,147,206.5,147z M206.6,131.7c4-0.3,7.5,2.8,7.7,6.8c0,0.3,0,0.6,0,0.9c0,3.2-1.4,8.7-8.5,8.7
                c-4.5,0-7.6-3-7.6-7.6C198.3,135.4,201.3,131.7,206.6,131.7"/>
            <path id="path110" d="M221.7,138.7c0,0.6,0.8,0.6,1.5,0.6c3.4,0,3.6-1.3,3.6-2.6c0-2.2-1.3-3.9-3.5-3.9c-0.8,0-1.5,0-1.5,1.4
                V138.7z M218.9,134.7c0-2.5-2.4-1.7-2.4-2.5c0-0.2,0.2-0.3,0.5-0.3c1,0,1.2,0.1,2.6,0.1s3-0.1,4.5-0.1c4.9,0,5.4,3.2,5.4,4.2
                c0,1.1-0.4,2.1-1.3,2.8c-0.6,0.5-1.3,0.7-1.3,0.9s1.9,3.4,3.5,6.2c0.2,0.3,0.5,0.4,0.8,0.4c0.2,0,0.4-0.1,0.7-0.1
                c0.2,0,0.3,0.1,0.3,0.3c0,0,0,0,0,0c0,0.7-1.5,1.2-2.4,1.2c-1.8,0-2.5-1.4-3.2-2.7l-1.9-3.6c-0.3-0.8-1.1-1.3-2-1.2
                c-1.2,0-1.1,0.2-1.1,0.9v3.9c0,2.4,2.2,1.5,2.2,2.3c0,0.2-0.2,0.3-0.7,0.3s-1-0.1-1.9-0.1c-1.2,0-2.3,0.1-3.5,0.1
                c-0.2,0-0.7,0.1-0.7-0.4c0-0.7,1.8,0,1.8-2.8L218.9,134.7"/>
            <path id="path112" d="M237.4,143.9c-0.1,3.8,2.3,2.5,2.3,3.5c0,0.1,0.1,0.4-0.5,0.4c-0.8,0-1.3-0.1-2.3-0.1s-1.9,0.1-2.2,0.1
                s-0.4-0.2-0.4-0.3c0-0.8,1.8-0.2,1.9-2.6l0.3-9c0.1-3.7-2.3-2.6-2.3-3.6c0-0.2,0.1-0.3,0.3-0.3c0.3,0,0.6,0.1,1.4,0.1
                c0.5,0,1.4-0.1,2.1-0.1c0.2,0,0.5,0,0.8,0.6l4.9,10.7c0.1,0.2,0.2,0.4,0.3,0.4s0.3-0.4,0.4-0.5l5.2-10.9c0.1-0.2,0.1-0.4,0.6-0.4
                s1,0.1,1.3,0.1s0.8-0.1,1.5-0.1s0.6,0.1,0.6,0.3c0,0.8-2.2-0.1-2.1,2.5l0.4,10c0.1,2.9,2.2,2,2.2,2.8c0,0.4-0.3,0.4-1.1,0.4
                s-1.3-0.1-1.9-0.1c-1.5,0-2,0.1-2.5,0.1s-1,0.1-1-0.3c0-0.8,1.8,0,1.6-2.5l-0.3-6.8c0-0.7,0-1-0.2-1s-0.4,0.4-0.7,1.2l-4.2,8.9
                c-0.1,0.3-0.2,0.6-0.6,0.6s-0.4-0.4-0.6-0.6l-4.4-9.7c-0.1-0.1-0.2-0.4-0.2-0.4s-0.2,0.4-0.2,0.6L237.4,143.9"/>
            <path id="path114" d="M264.8,141c0.4,0,0.7,0,0.7-0.2c0-0.3-0.1-0.6-0.2-0.8l-1.8-4.1c-0.1-0.2-0.1-0.2-0.2-0.2s-0.1,0-0.2,0.3
                l-1.7,4c-0.1,0.3-0.2,0.5-0.2,0.8c0,0.2,0.3,0.2,0.7,0.2L264.8,141z M261,142.3c-0.4,0-0.9,0.1-1.4,1.6c-0.2,0.6-0.4,1.2-0.5,1.8
                c0,1.6,2.4,1.3,2.4,1.9c0,0.6-0.7,0.3-1.2,0.3c-0.7,0-1.4-0.1-2.1-0.1s-1.3,0.1-2,0.1c-0.3,0-0.7,0-0.7-0.2c0-0.5,1.2-0.4,1.7-1.6
                l6.1-13.6c0.2-0.4,0.3-0.8,0.6-0.8c0.3,0,0.2,0,0.5,0.7l6.1,13.8c0.7,1.6,1.9,0.7,1.9,1.5c0,0.4-0.2,0.3-0.8,0.3
                c-0.8,0-1.4-0.1-2.9-0.1c-1,0-1.8,0.1-2.5,0.1c-0.4,0-0.7,0-0.7-0.3c0-0.6,1.6-0.4,1.6-1.8c0-0.5-0.2-1-0.4-1.5
                c-0.7-1.8-0.9-2-1.4-2L261,142.3"/>
            <path id="path116" d="M278.5,134.4c0-1.1-0.2-1.2-1.1-1.2h-1.8c-2.5,0-1.9,2.9-2.9,2.9c-0.5,0-0.3-0.5-0.3-0.8l0.4-3
                c0-0.2,0-0.5,0.4-0.5c2.1,0,3.5,0.1,6.8,0.1s4.2-0.1,6.3-0.1c0.3,0,0.3,0.3,0.4,0.5l0.2,2.1c0,0.3,0.3,1.2-0.3,1.2
                c-0.9,0-0.2-2.5-2.8-2.4H282c-0.9,0-0.8,0.1-0.8,1.2v10.2c0,2.8,2.9,2.1,2.9,2.7c0,0.6-0.4,0.5-1.1,0.5c-0.9,0-1.6-0.1-3.1-0.1
                c-1.5,0-2.2,0.1-3.1,0.1c-0.4,0-0.8,0-0.8-0.5c0-0.9,2.5,0.2,2.5-2.5L278.5,134.4"/>
            <path id="path118" d="M294.1,145c0,2.8,2.5,1.7,2.5,2.4c0,0.2-0.2,0.3-0.7,0.3c-0.8,0-1.7-0.1-3.4-0.1c-1,0-1.9,0.1-2.5,0.1
                c-0.1,0-0.2-0.1-0.3-0.2c0,0,0,0,0,0c0-0.8,1.6-0.2,1.6-2.3v-10.8c0-2-2.5-1.4-2.5-2.2c0-0.4,0.6-0.3,0.8-0.3
                c0.9,0,1.8,0.1,2.5,0.1s1.6-0.1,2.9-0.1c0.7,0,0.8,0,0.8,0.3c0,0.8-1.7,0-1.7,2.1L294.1,145"/>
            <path id="path120" d="M306.8,147c3.9-0.1,5.1-3.1,5.1-6.8c0-5-2.7-7.6-5.6-7.5c-3.8,0.1-4.9,3.2-4.9,6.4
                C301.3,142.3,302.7,147,306.8,147L306.8,147z M306.9,131.7c4-0.3,7.5,2.8,7.7,6.8c0,0.3,0,0.6,0,0.9c0,3.2-1.4,8.7-8.5,8.7
                c-4.5,0-7.5-3-7.5-7.6C298.6,135.4,301.6,131.7,306.9,131.7"/>
            <path id="path122" d="M318.8,136.2c0-4.3-2.5-2.9-2.5-3.9c0-0.2,0.1-0.4,0.3-0.4c0,0,0,0,0.1,0c0.4,0,0.8,0.1,1.3,0.1
                c0.6,0,1.2-0.1,2.4-0.1c0.7,0,0.5,0.2,0.9,0.6l9,9.9c0.3,0.3,0.6,0.6,0.7,0.6s0.2-0.3,0.2-0.8v-7.5c0-2-2.7-1.6-2.7-2.4
                c0-0.2,0.1-0.4,0.3-0.4c0,0,0,0,0.1,0c0.4,0,1,0.1,2.6,0.1s2.2-0.1,2.4-0.1c0.4,0,0.4,0.2,0.4,0.3c0,0.7-1.9,0.1-1.9,2.5v12.6
                c0,0.5,0,0.7-0.3,0.7c-0.2,0-0.5-0.1-0.6-0.3l-10.8-11.7c-0.2-0.2-0.3-0.3-0.4-0.3s-0.2,0.2-0.2,0.4v7.6c0,4.3,2.9,2.8,2.9,3.8
                c0,0.3-0.6,0.3-0.9,0.3c-1.1,0-1.9-0.1-2.6-0.1s-1.3,0.1-1.9,0.1c-0.2,0-0.7,0.1-0.7-0.3c0-0.9,2.1-0.5,2.1-2.8L318.8,136.2"/>
            <path id="path124" d="M156.7,161.8c0-0.8-0.2-0.9-0.9-0.9h-0.9c-2,0-1.5,2.3-2.2,2.3c-0.4,0-0.3-0.4-0.2-0.6l0.3-2.3
                c0-0.2,0-0.4,0.3-0.4c1.6,0,2.3,0.1,4.8,0.1s3.7-0.1,5.4-0.1c0.3,0,0.3,0.2,0.3,0.4l0.2,1.6c0,0.2,0.2,0.9-0.2,0.9
                c-0.7,0-0.1-1.9-2.2-1.9h-1.5c-0.7,0-0.9,0.1-0.9,0.9v7.9c0,2.1,2.2,1.6,2.2,2.1s-0.4,0.4-0.9,0.4c-0.7,0-1.3-0.1-2.5-0.1
                c-1.2,0-1.8,0.1-2.5,0.1c-0.3,0-0.6,0-0.6-0.4c0-0.7,2,0.2,2-1.9L156.7,161.8"/>
            <path id="path126" d="M174.4,164.4c0,0.8,0,0.9,0.8,0.9h1.1c1.5,0,1.6-1.6,1.9-1.6c0.1,0,0.3,0,0.3,0.4l0.1,3.1
                c0,0.2,0.1,0.9-0.3,0.9s-0.1-1.9-1.9-1.9h-1.3c-0.8,0-0.7,0.2-0.7,1.2v2.2c0,1.1-0.1,1.7,1.2,1.7c4.4,0,4.1-2.3,4.8-2.3
                c0.1,0,0.2,0.1,0.2,0.4c0.1,1.4-1,2.7-2.5,2.8c-2.7,0-3.7-0.1-4.6-0.1c-0.5,0-1.3,0.1-2.2,0.1c-0.2,0-0.3-0.1-0.3-0.2
                c0-0.8,1.3,0.1,1.3-2v-8.2c0-1.6-2-1-2-1.7c0-0.2,0.1-0.3,0.4-0.3c0.7,0,2,0.1,4.7,0.1c1.2,0,2.5-0.1,4-0.1c0.2,0,0.3,0.1,0.3,0.3
                c0,0,0,0,0,0l0.1,1.7c0,0.2,0.1,0.8-0.3,0.8c-0.8,0,0.5-2.1-2.8-2.1c-2.1,0-2.2,0-2.2,1.2L174.4,164.4"/>
            <path id="path128" d="M198.8,163.6c0,0.2,0.1,0.6-0.2,0.6s-0.4-0.4-0.5-0.6c-0.9-1.7-2.4-3.2-4.5-3.2c-2.6,0-4,2.5-4,4.8
                s1.4,5.9,4.8,5.9c2.7,0,3.9-2.3,4.4-2.3c0.1,0,0.2,0.1,0.2,0.2c0,0.7-1.9,3.4-5.6,3.4c-3.2,0.1-5.8-2.3-5.9-5.5c0-0.1,0-0.3,0-0.4
                c0-2.9,1.8-6.8,6.2-6.8c2.1,0,3.5,1.1,4,1.1c0.3,0,0.4-0.6,0.6-0.6c0.1,0,0.2,0,0.2,0.1L198.8,163.6"/>
            <path id="path130" d="M218.4,169.8c0,2.2,1.8,1.6,1.8,2.3c0,0.2-0.1,0.2-0.4,0.2c-0.6,0-1.6-0.1-2.3-0.1s-1.3,0.1-2.2,0.1
                c-0.2,0-0.4-0.1-0.4-0.2c0-0.6,1.3-0.1,1.3-1.8v-3.2c0-0.7,0.1-0.9-0.7-0.9h-4.7c-0.8,0-0.9,0.2-0.9,0.9v2.8
                c0,2.2,2.2,1.5,2.2,2.2c0,0.1,0,0.2-0.5,0.2c-0.7,0-1.3-0.1-2.6-0.1c-0.7,0-1.5,0.1-2.4,0.1c-0.2,0-0.4,0-0.4-0.3
                c0-0.7,1.5-0.1,1.5-2.2v-7.8c0-1.9-2-1.1-2-1.8c0-0.3,0.5-0.3,0.9-0.3c0.5,0,1.1,0.1,2,0.1s1.8-0.1,2.3-0.1c0.2,0,0.4,0.1,0.4,0.3
                c0,0.5-1.4,0-1.4,1.6v2.8c0,0.5,0.1,0.7,0.4,0.7h5.2c0.5,0,0.6-0.4,0.6-0.8v-2.5c0-1.9-1.9-1.3-1.9-1.8c0-0.3,0.2-0.3,0.4-0.3
                c0.7,0,1.2,0.1,2.3,0.1c0.9,0,1.6-0.1,2.3-0.1c0.3,0,0.4,0.1,0.4,0.2c0,0.7-1.3-0.1-1.3,1.6L218.4,169.8"/>
            <path id="path132" d="M229.3,163.3c0-3.4-2-2.2-2-3.1c0-0.2,0.1-0.3,0.3-0.3c0,0,0,0,0,0c0.3,0,0.6,0.1,1,0.1s0.9-0.1,1.8-0.1
                c0.6,0,0.4,0.1,0.7,0.5l7.1,7.7c0.2,0.2,0.4,0.5,0.5,0.5s0.1-0.2,0.1-0.6v-5.8c0-1.6-2.1-1.3-2.1-1.9c0-0.1,0.1-0.3,0.2-0.3
                c0,0,0,0,0,0c0.3,0,0.8,0.1,2,0.1s1.7-0.1,1.9-0.1c0.3,0,0.3,0.2,0.3,0.2c0,0.5-1.5,0.1-1.5,2v9.8c0,0.4,0,0.5-0.2,0.5
                c-0.2,0-0.4-0.1-0.5-0.2l-8.4-9.1c-0.1-0.1-0.2-0.2-0.3-0.2s-0.1,0.1-0.1,0.3v6c0,3.4,2.2,2.2,2.2,3c0,0.2-0.4,0.2-0.7,0.2
                c-0.9,0-1.4-0.1-2.1-0.1s-1,0.1-1.5,0.1c-0.2,0-0.5,0.1-0.5-0.2c0-0.7,1.7-0.4,1.7-2.2L229.3,163.3"/>
            <path id="path134" d="M254.5,171.6c3-0.1,4-2.4,4-5.3c0-3.9-2.1-5.9-4.4-5.9c-3,0.1-3.8,2.5-3.8,5S251.3,171.7,254.5,171.6z
                 M254.6,159.6c3.1-0.2,5.8,2.2,6,5.3c0,0.2,0,0.4,0,0.6c0,2.5-1.1,6.8-6.7,6.8c-3.1,0.2-5.7-2.2-5.9-5.3c0-0.2,0-0.4,0-0.7
                C248.1,162.6,250.4,159.7,254.6,159.6"/>
            <path id="path136" d="M271.5,169.6c0,1.1-0.1,1.7,1.2,1.7c4.4,0,4.1-2.3,4.8-2.3c0.1,0,0.2,0.1,0.2,0.4c0,1.4-1,2.7-2.5,2.8
                c-2.7,0-3.7-0.1-4.6-0.1c-0.5,0-1.3,0.1-2.2,0.1c-0.2,0-0.3-0.1-0.3-0.2c0-0.8,1.3,0.1,1.3-2v-8.3c0-1.5-2-1-2-1.6
                c0-0.2,0.2-0.3,0.6-0.3c0.7,0,1.7,0.1,2.4,0.1c1.5,0,1.7-0.1,2-0.1c0.3,0,0.5,0,0.5,0.2c0,0.7-1.2,0-1.2,1.4V169.6"/>
            <path id="path138" d="M290.6,171.6c3-0.1,4-2.4,4-5.3c0-3.9-2.1-5.9-4.4-5.9c-3,0.1-3.8,2.5-3.8,5S287.5,171.7,290.6,171.6
                L290.6,171.6z M290.8,159.6c3.1-0.2,5.8,2.2,6,5.3c0,0.2,0,0.4,0,0.6c0,2.5-1.1,6.8-6.7,6.8c-3.1,0.2-5.7-2.2-5.9-5.3
                c0-0.2,0-0.4,0-0.7C284.2,162.6,286.5,159.7,290.8,159.6"/>
            <path id="path140" d="M315.5,163.9c0,0.2-0.1,0.3-0.4,0.3s-0.4-3.8-5-3.8c-1.6,0-4,1.1-4,5.5c0,2.4,1.2,5.6,4.1,5.6
                c3.2,0,3.2-1.5,3.2-2.5c0-2.7-2.1-1.5-2.1-2.2c0-0.5,0.6-0.4,0.9-0.4c0.8,0,1.6,0.1,2.5,0.1c0.6,0,1.3-0.1,1.9-0.1
                c0.1,0,0.2,0.1,0.2,0.2c0,0.8-1.2-0.2-1.2,2.1c0,0.7,0,1.2,0,1.5s0,0.4-0.2,0.4c-1.7,1-3.6,1.6-5.5,1.7c-3.2,0.1-5.8-2.3-5.9-5.5
                c0-0.1,0-0.3,0-0.4c0-2.9,1.8-6.8,6.2-6.8c2.4,0,3.9,1.1,4.4,1.1s0.4-0.5,0.7-0.5s0.3,0.4,0.3,0.7L315.5,163.9"/>
            <path id="path142" d="M324.8,161.4c-0.7-1.3-1.8-0.8-1.8-1.4c0-0.2,0.2-0.2,0.6-0.2s0.7,0.1,1.6,0.1s1.5,0,2.6-0.1
                c0.2,0,0.3,0.1,0.3,0.2c0,0.4-1,0.3-1,0.9c0,0.3,0.1,0.6,0.2,0.8l1.6,3.3c0.3,0.6,0.4,0.8,0.5,0.8s0.2-0.1,0.4-0.5l1.6-2.9
                c0.2-0.3,0.3-0.6,0.3-1c0-1.2-1.7-0.8-1.7-1.3c0-0.2,0.1-0.3,0.3-0.3s0.6,0.1,1.5,0.1c1.3,0,1.5-0.1,2-0.1c0.2,0,0.3,0.1,0.3,0.2
                c0,0.5-0.8,0.1-1.8,2.1l-2.3,4.4c-0.2,0.3-0.3,0.7-0.2,1.1v2.6c0,2.2,2.2,1,2.2,1.9c0,0.2-0.3,0.2-0.6,0.2c-0.1,0-0.4-0.1-2.6-0.1
                c-1.6,0-2.1,0.1-2.6,0.1c-0.3,0-0.5,0-0.5-0.2c0-0.8,1.9,0.2,1.9-2.1v-2.3c0-0.4-0.1-0.8-0.3-1.1L324.8,161.4"/>
        </g>
        <g id="shield">
            <path id="path44" d="M50.9,47.1l-2.7,2.8c0,2-0.1,4.6-0.1,5.9c-0.3,20.1,1.1,51.3,33.8,66.4c17.3-8,30.4-21.8,33.8-43.1
                c2-12.4,0.8-24.1,0.8-32L50.9,47.1z M82,120c-35.4-16.4-31.2-53-31.1-70.1l62.7,0.1C113.6,67.1,117.5,103.7,82,120"/>
            <path id="path46" d="M68.6,92l-5.8,6.3c-0.2,0.2-0.2,0.4-0.1,0.5c0.1,0.2,0.3,0.3,0.5,0.4c0.1,0,0.3,0.1,0.5-0.2
                c0.1-0.1,2.9-2.8,6.1-5.9c-0.2-0.1-0.4-0.3-0.6-0.4C69,92.5,68.8,92.3,68.6,92"/>
            <path id="path48" d="M70.3,91.3c0.5,0.5,1.1,0.9,1.7,1.2L71.4,93c-0.2,0.2-1-0.1-1.8-0.8s-1.2-1.5-1-1.7l0.6-0.6
                C69.5,90.4,69.9,90.8,70.3,91.3"/>
            <path id="path50" d="M98.9,98.2c0.3-0.3,0.5-0.6,0.5-1l0.6,0.3c0.2,0.2,0,0.8-0.5,1.3s-1.2,0.7-1.4,0.5l-0.3-0.6
                C98.3,98.7,98.7,98.5,98.9,98.2"/>
            <path id="path52" d="M98.1,97.3c0.2-0.2,0.4-0.4,0.5-0.7l0.4,0.2c0.1,0.1,0,0.5-0.4,0.9c-0.4,0.4-0.9,0.5-1,0.4l-0.2-0.4
                C97.6,97.6,97.9,97.5,98.1,97.3"/>
            <path id="path54" d="M99.8,68.7l-0.7,0.6c-0.9,0.3-3-1.2-4.6-2.7c-1.1-1-3.3-3.3-2.7-4.3l0.3-0.3l-0.5-0.3
                c-0.2-0.1-0.5-0.2-0.7-0.1c-0.3,0-0.5,0.1-0.5,0.3c0,0.6,0.2,1.2,0.5,1.7c1.2,1.9,2.7,3.5,4.4,4.8c1.1,0.9,2.4,1.5,3.7,2
                c0.2,0.1,0.8,0.2,1.1-0.1c0.3-0.3,0-0.8-0.2-1.3C100,68.9,99.9,68.8,99.8,68.7"/>
            <path id="path56" d="M73.4,70.3c-2.9-2.9-4-3.6-5.3-4.1c-0.5-0.3-1-0.4-1.6-0.4c-0.7,0.2-1.4,0.6-2,1.1c-0.4,0.3-0.3,0.5-0.1,0.6
                c1,0.3,2,0.7,3,1.2c2.4,1.3,6.8,4.3,16.5,14.3c5,5.1,12.7,12.9,12.7,12.9l0.2-0.2c0,0-11.2-12.6-20-21.9
                C75.5,72.4,74.4,71.3,73.4,70.3z M71.4,58.4c0,0.2,0,0.4,0,0.7c0.3,3.7,1.6,7.2,3.8,10.1c2.7,3.4,11,13.3,12.3,14.8
                c1.3,1.6,9.4,11,10.4,12.2l0.1,0.1c-0.1,0.2-0.2,0.3-0.3,0.4c-0.2,0.1-0.3,0.2-0.5,0.2c0,0-0.2-0.2-0.2-0.2
                c-0.3-0.3-14.3-14.4-15.7-15.7c-1.4-1.3-8.6-8.3-11.6-10.2c-2.6-1.7-3.8-2.6-6.6-2.8c-0.7,0-1.4-0.1-2.1-0.2c0,0,0-0.1,0.1-0.1
                c2.2-1,4.3-2.4,6.1-4.1c1.7-1.5,3.1-3.2,4.1-5.2C71.2,58.4,71.4,58.4,71.4,58.4"/>
            <path id="path58" d="M65.6,62.7c0.3-0.3,1.5-1.5,2.5-2.6c0.6-0.7,1.1-1.5,1.6-2.3c0.1-0.2,0.1-0.4,0.1-0.6c0-0.2-0.2-0.3-0.3-0.3
                c-1.4,0.5-2.6,1.2-3.8,2.1c-0.2,0.3-0.4,0.6-0.5,1c-0.1,0.3,0.7,1.2,0.2,2.6C65.4,62.7,65.6,62.7,65.6,62.7z M64.7,64.3
                c-1.3,1.1-2.7,2-4.3,2.6c-0.9,0.4-2.1,0-1.2-1.8c0.3-0.7,0.7-1.3,1.2-1.9c2.1-2.7,4.7-4.9,7.6-6.6c0.6-0.4,1.3-0.7,2.1-0.8
                c0.7,0,0.8,0.6,0.6,1.2C70.4,58.5,68.3,61.3,64.7,64.3"/>
            <path id="path60" d="M81,81.9l-9.7,9.3c0.2,0.1,0.3,0.3,0.5,0.4c0,0,8.4-8,9-8.6l0.7-0.6L81,81.9"/>
            <path id="path62" d="M98.2,71.1h0.4c0.1,0,0.2,0,0.4-0.1c0.1-0.1,0.1-0.1,0-0.2c-0.7-0.1-1.5-0.3-2.1-0.7
                c-0.8,0.2-1.7,0.5-2.5,0.8c-1.3,0.6-4.2,2.3-10.1,7.7l0.5,0.5c2-1.9,4.1-3.6,6.3-5.2c1.8-1.3,3.7-2.2,5.8-2.8
                C97.2,71.3,97.7,71.2,98.2,71.1"/>
            <path id="path64" d="M92.4,66.9c-1.1-1-1.9-2.3-2.4-3.8V63c0,0-0.1,0-0.1,0c0,0,0,0,0,0c0,0,0,0.1,0,0.1c0,1.5-0.2,2.9-0.7,4.2
                c-0.8,1.9-1.9,3.6-3.2,5.1c-0.9,1-2.3,2.6-3.7,4.2l0.9,1.1L84,77c3-3.2,6.3-6.2,9.8-8.8C93.3,67.7,92.9,67.3,92.4,66.9"/>
            <path id="path66" d="M79.1,80.2c-1.9,2.1-3.8,4.3-4.3,4.9s-4.6,5-4.6,5c0.1,0.1,0.1,0.2,0.2,0.3c0.1,0.1,0.3,0.3,0.3,0.3
                s8.7-8.9,9.3-9.6L79.1,80.2"/>
            <path id="path68" d="M94,61c0-0.1,0-0.1,0-0.2c-0.4-0.1-0.8-0.1-1,0.1c-0.6,0.6,0.7,2.7,2.8,4.7c2.1,2,4.3,3.1,4.9,2.5
                c0.2-0.2,0.2-0.7-0.2-1.4C97.5,67,94,62.9,94,61"/>
            <path id="path70" d="M102.8,64.6c-0.3,0.5-0.8,0.9-1.3,1.1c-0.8,0.3-1.6,0.4-2.4,0.2c-1.6-0.6-3-1.8-3.9-3.2
                c-1.9-3.1,0.7-4.5,0.9-4.5c-0.1,0.6-0.2,1.1-0.1,1.7c0.2,0.5,0.4,1,0.6,1.4c0.2,0.5,0,1-0.3,1.4c-0.1,0.1,0.1,0,0.2,0
                s0.1-0.1,0.2-0.1c0.4-0.2,0.7-0.6,0.7-1.1c-0.2-1-0.9-1.6-0.1-3.5c0.4-0.9,1-1.8,1.8-2.5c0.2-0.1,0.3-0.3,0.3-0.2s0.2,1,0.3,1.6
                c0.4,1.1,0.7,2.2,0.6,3.4c-0.1,1.6-2.8,3.4-3.2,3.5c-0.1,0-0.2,0.1-0.4,0.2c-0.1,0.1,0,0.1,0.1,0.1c0.8-0.1,1.5-0.5,2.2-0.9
                c0.7-0.5,1.3-1.1,1.7-1.8c0.3-0.7,0.6-1.4,0.7-2.2c0.1-0.2,0.2-0.2,0.2-0.1c0,0.1,0.2,0.8,0.3,1.2c0.1,0.5,0.2,0.9,0.2,1.4
                c0.1,1.4-0.9,2.7-2.4,2.8c0,0-0.1,0-0.1,0h-0.2c-0.1,0-0.1,0,0,0.1l0.2,0.1c0.6,0.2,1.3,0.1,1.8-0.2c0.4-0.2,0.7-0.5,1-0.8
                c0.2-0.2,0.4-0.5,0.4-0.4C103,63.8,102.9,64.2,102.8,64.6z M103.6,61.7c-0.3,0.4-0.8,1.1-1.1,1.4c0.3-0.3,0.5-1,0.2-2.9
                c-0.1-0.7-0.3-1.5-0.6-2.2c-0.1-0.2-0.2-0.2-0.4,0c-0.2,0.3-0.4,0.6-0.6,0.9c0,0.2,0,0-0.6-1.9c-0.3-0.8-0.5-1.6-0.5-2.5
                c0-0.2,0-0.5,0-0.6s-0.1-0.1-0.5,0c-1.1,0.7-2,1.7-2.5,2.9c-0.4,1-0.4,1.8-0.5,1.3c-0.1-1-0.1-1-0.2-0.9c-1.5,0.5-2.5,2-2.4,3.6
                c0,2.2,4.1,6.8,7.4,5.7c0,0,2.5-0.5,2.6-2.7C103.8,61.6,103.6,61.7,103.6,61.7"/>
        </g>
    </g>
</svg>
