<svg version="1.1" id="logo" xmlns="http://www.w3.org/2000/svg" xmlns:xlink="http://www.w3.org/1999/xlink" x="0px" y="0px" viewBox="0 0 97.11 99.36" style="enable-background:new 0 0 97.11 99.36;" xml:space="preserve">
  Emory University
  <title id="logo-title">Emory University</title>
  <g id="shield">
    <path d="M48.05,91.62C5.95,72.15,11,28.67,11.02,8.34l74.5,0.07C85.5,28.74,90.18,72.24,48.05,91.62z M11.01,5L7.8,8.37
					c-0.04,2.43-0.09,5.49-0.11,6.99c-0.31,23.88,1.31,61.03,40.17,79c20.56-9.53,36.12-25.89,40.21-51.28
					c2.38-14.7,0.95-28.66,0.97-38.05L11.01,5z" />
    <path d="M32.13,58.38c-2.98,3.19-5.93,6.34-6.92,7.41c-0.23,0.24-0.25,0.49-0.11,0.65c0.21,0.23,0.48,0.51,0.6,0.54
					c0.18,0.04,0.32,0.12,0.64-0.22c0.13-0.15,3.41-3.31,7.29-7.04c0,0-0.39-0.2-0.73-0.5C32.54,58.89,32.13,58.38,32.13,58.38z" />
    <path d="M34.13,57.53c0.76,0.74,2,1.45,2,1.45l-0.68,0.66c-0.26,0.28-1.22-0.16-2.15-0.99c-0.93-0.83-1.47-1.74-1.21-2.02
						l0.76-0.69C32.85,55.94,33.38,56.8,34.13,57.53z" />
    <path d="M68.17,65.74c0.61-0.62,0.64-1.19,0.64-1.19l0.68,0.33c0.2,0.21,0.03,0.99-0.6,1.61c-0.62,0.61-1.47,0.82-1.68,0.61
								l-0.36-0.73C66.86,66.37,67.53,66.38,68.17,65.74z" />
    <path d="M67.14,64.65c0.4-0.36,0.54-0.85,0.54-0.85l0.44,0.3c0.15,0.15,0.01,0.65-0.44,1.09c-0.46,0.45-1.08,0.6-1.22,0.45
								l-0.26-0.48C66.19,65.15,66.74,65.01,67.14,64.65z" />
    <path d="M69.22,30.64l-0.79,0.7c-1.08,0.42-3.55-1.47-5.48-3.16c-1.3-1.14-3.9-4-3.16-5.16l0.33-0.33
					c-0.23-0.14-0.44-0.26-0.59-0.34c-0.21-0.11-0.5-0.2-0.83-0.15c-0.31,0.04-0.56,0.16-0.58,0.42c-0.05,0.52,0.24,1.2,0.66,2.02
					c0.41,0.81,2.03,3.16,5.28,5.76c1.49,1.19,3.19,1.92,4.42,2.37c0.22,0.08,0.99,0.24,1.33-0.09c0.34-0.34-0.04-0.94-0.3-1.51
					C69.44,30.98,69.34,30.82,69.22,30.64z" />
    <path d="M67.64,23.13" />
    <path d="M66.05,22.41" />
    <path d="M35.43,18.5c0,0.24,0,0.51,0,0.79c0,0.79,0.72,7.33,4.5,12.05c3.25,4.07,13.1,15.79,14.66,17.66
				c1.47,1.74,11.12,13.03,12.34,14.46c0.05,0.06,0.12,0.14,0.12,0.15c0,0.01-0.13,0.31-0.42,0.54C66.32,64.39,66,64.41,66,64.41
				c-0.04-0.03-0.25-0.25-0.29-0.3c-0.35-0.41-17.02-17.08-18.65-18.66c-1.62-1.57-10.21-9.88-13.75-12.15
				c-3.07-1.96-4.46-3.06-7.83-3.34c0,0-2.4-0.09-2.56-0.2c-0.03-0.02,0.01-0.13,0.07-0.15c1.48-0.61,4.72-2.49,7.28-4.92
				c3.59-3.4,4.73-5.79,4.91-6.16C35.22,18.44,35.43,18.42,35.43,18.5z M37.78,32.62c-3.46-3.44-4.78-4.24-6.34-4.91
				c-0.81-0.35-1.62-0.61-1.86-0.52c-0.68,0.26-1.7,0.7-2.33,1.26c-0.46,0.41-0.41,0.6-0.17,0.73c0.25,0.14,2.01,0.52,3.61,1.38
				c2.81,1.5,8.08,5.17,19.57,17.05c5.84,6.04,15.03,15.38,15.03,15.38l0.23-0.19c0,0-13.37-14.99-23.8-26.08
				C40.25,35.13,38.94,33.78,37.78,32.62z" />
    <path d="M68.94,30.51" />
    <path d="M27.49,25.5c-1.52,1.28-3.43,2.45-5.11,3.14c-1.06,0.43-2.56-0.05-1.48-2.1c0.33-0.62,0.79-1.39,1.43-2.24
				c2.01-2.66,5.6-5.95,9.08-7.83c1.06-0.57,2.03-0.94,2.48-0.92c0.86,0.05,0.91,0.78,0.75,1.46C34.28,18.53,31.77,21.91,27.49,25.5
				z M28.55,23.55c0.38-0.33,1.77-1.74,2.94-3.12c1.23-1.45,1.88-2.75,1.88-2.75s0.19-0.41,0.16-0.69
				c-0.03-0.22-0.26-0.31-0.34-0.38c-0.13-0.12-3.13,1.24-4.46,2.48c-0.16,0.15-0.45,0.76-0.58,1.2c-0.12,0.38,0.88,1.44,0.22,3.06
				C28.29,23.58,28.5,23.6,28.55,23.55z" />
    <path d="M35.4,18.93" />
    <path d="M46.79,46.41c-0.7,0.66-11.53,11.05-11.53,11.05c0.16,0.16,0.61,0.49,0.61,0.49s9.95-9.56,10.69-10.25
					c0.2-0.19,0.64-0.59,0.8-0.73L46.79,46.41z" />
    <path d="M67.22,33.6c0.15-0.02,0.32-0.03,0.46-0.03c0.16-0.01,0.38-0.05,0.41-0.08c0.09-0.07,0.15-0.17-0.03-0.18
					c-0.51-0.02-1.43-0.27-2.48-0.77c-0.64,0.17-1.69,0.46-2.92,1c-1.56,0.7-4.98,2.75-11.99,9.17l0.55,0.64
					c2.43-2.19,5.67-5.06,7.44-6.21c3.13-2.04,5.39-2.96,6.91-3.32C66.02,33.72,66.7,33.64,67.22,33.6z" />
    <path d="M60.4,28.5c-1.92-2-2.53-3.44-2.84-4.5c-0.01-0.04-0.02-0.07-0.04-0.1c-0.01-0.02-0.09-0.04-0.11,0.05
					c-0.01,0.04-0.03,0.09-0.03,0.13c-0.17,2.07,0.02,2.94-0.85,5.05c-0.73,1.76-2.01,4.01-3.77,6.06
					c-1.02,1.19-2.75,3.14-4.34,4.95l1.12,1.32c0.11-0.13,0.46-0.5,0.87-0.93c5.34-5.71,9.99-9.25,11.66-10.48
					C61.46,29.55,60.9,29.02,60.4,28.5z" />
    <path d="M44.56,44.37c-2.26,2.55-4.52,5.05-5.18,5.78c-0.56,0.62-5.49,5.92-5.49,5.92s0.12,0.21,0.27,0.38
					c0.15,0.17,0.41,0.4,0.41,0.4s10.34-10.61,11.12-11.43L44.56,44.37z" />
    <path d="M62.28,21.49c0-0.08,0.01-0.15,0.01-0.23c-0.54-0.15-0.95-0.12-1.17,0.11c-0.68,0.73,0.82,3.22,3.35,5.57
				c2.53,2.34,5.13,3.65,5.81,2.92c0.27-0.29,0.19-0.87-0.17-1.61C66.44,28.67,62.28,23.84,62.28,21.49z" />
    <path d="M73.68,22.43c-0.36,0.41-0.97,1.37-1.33,1.69c0.4-0.35,0.62-1.2,0.19-3.43c-0.3-1.56-0.5-2.08-0.7-2.6
				c-0.12-0.29-0.29-0.22-0.5,0.01c-0.2,0.22-0.67,1.04-0.68,1.08c-0.05,0.19,0,0.01-0.73-2.25c-0.46-1.44-0.66-2.44-0.63-2.94
				c0.01-0.27,0.03-0.55,0.04-0.75c0.01-0.18-0.09-0.18-0.55,0.02c-0.24,0.1-2.18,1.45-2.98,3.48c-0.46,1.17-0.5,2.14-0.57,1.55
				c-0.14-1.15-0.12-1.14-0.23-1.1c-0.64,0.21-2.88,1.23-2.89,4.26c0,2.58,4.85,8.05,8.79,6.81c0,0,2.99-0.57,3.05-3.26
				C74,22.3,73.68,22.43,73.68,22.43z M72.7,25.77c-0.15,0.27-0.7,0.97-1.55,1.35c-0.94,0.41-2.18,0.47-2.83,0.27
				c-2.91-0.9-4.65-3.86-4.65-3.86c-2.29-3.71,0.78-5.29,1.04-5.34c0,0-0.33,1.21-0.12,2.04c0.18,0.74,0.62,1.31,0.75,1.72
				c0.28,0.82-0.11,1.38-0.29,1.65c-0.1,0.14,0.17,0.06,0.23,0.02c0.05-0.03,0.08-0.08,0.18-0.15c0.42-0.32,0.81-0.81,0.69-1.32
				c-0.27-1.14-1.09-1.86-0.12-4.22c0.6-1.44,1.98-2.86,2.11-2.94c0.22-0.15,0.36-0.33,0.37-0.18c0,0.16,0.25,1.22,0.38,1.91
				c0.13,0.69,0.92,2.09,0.75,4.03c-0.17,1.94-3.35,4.07-3.79,4.21c-0.14,0.05-0.37,0.18-0.42,0.23c-0.11,0.11,0.05,0.13,0.13,0.15
				c0.17,0.03,1.52-0.29,2.6-1.05c0.91-0.63,1.77-1.59,2.07-2.15c0.55-1.04,0.82-2.49,0.88-2.63c0.09-0.22,0.18-0.21,0.21-0.09
				c0.03,0.12,0.25,0.97,0.34,1.4c0.05,0.24,0.19,0.91,0.19,1.65c0.01,1.46-0.42,2.13-1.27,2.79c-0.49,0.38-1.02,0.51-1.61,0.57
				l-0.2,0.03c-0.08,0.02-0.16,0.04,0.02,0.13c0.05,0.03,0.12,0.04,0.21,0.09c0.48,0.22,1.5,0.19,2.16-0.21
				c0.3-0.19,0.7-0.47,1.25-1c0.2-0.2,0.48-0.56,0.51-0.44C72.93,24.59,72.98,25.24,72.7,25.77z" />
  </g>
</svg>
